<mxfile host="Electron" modified="2024-01-28T18:39:46.633Z" agent="Mozilla/5.0 (Windows NT 10.0; Win64; x64) AppleWebKit/537.36 (KHTML, like Gecko) draw.io/23.0.2 Chrome/120.0.6099.109 Electron/28.1.0 Safari/537.36" etag="fmupgj_HRoq4HBt6Fcw2" version="23.0.2" type="device">
  <diagram name="Page-1" id="CABydWR0wJYZBpMGVxRc">
    <mxGraphModel dx="1467" dy="887" grid="1" gridSize="10" guides="1" tooltips="1" connect="1" arrows="1" fold="1" page="1" pageScale="1" pageWidth="1169" pageHeight="827" math="0" shadow="0">
      <root>
        <mxCell id="0" />
        <mxCell id="1" parent="0" />
        <mxCell id="Ixr0ffq90QcaKTADXFyB-1" value="" style="shape=image;aspect=fixed;image=data:image/png,iVBORw0KGgoAAAANSUhEUgAAAgAAAAIACAYAAAD0eNT6AAAABHNCSVQICAgIfAhkiAAAAAlwSFlzAAAN1wAADdcBQiibeAAAABl0RVh0U29mdHdhcmUAd3d3Lmlua3NjYXBlLm9yZ5vuPBoAABu8SURBVHic7d170HVnWR/g350DhARIQGJoBYKEEDBtJAdAAgjCSBm0SIeUjE4dY3A6Yw+j1XY6LQjhbLVidEYrwxSIzlArtIMzatEqR63aJBAYIAUSDkIROSYxQCDJ9/SPtaEJyfce9rPed737fa5rJjMEvnXve761ee7fftbae1VrLQDAWI5ZugEAYP8JAAAwIAEAAAYkAADAgAQAABiQAAAAAxIAAGBAAgAADEgAAIABCQAAMCABAAAGJAAAwIAEAAAYkAAAAAMSAABgQAIAAAxIAACAAQkAADAgAQAABiQAAMCABAAAGJAAAAADEgAAYEACAAAMSAAAgAEJAAAwIAEAAAYkAADAgAQAABiQAAAAAxIAAGBAAgAADEgAAIABCQAAMCABAAAGJAAAwIAEAAAYkAAAAAMSAABgQAIAAAxIAACAAQkAADAgAQAABiQAAMCABAAAGJAAAAADEgAAYEACAAAMSAAAgAEJAAAwIAEAAAYkAADAgAQAABiQAAAAAxIAAGBAAgAADEgAAIABCQAAMKDjlm5gTlX13UmekeSMJA9KclqSYxdtCoBNdXuSv0nyqSTXJ/kfrbX3LdvSfKq1tnQPXarqpCQ/m+TSJKcv3A4Ah9vHkvznJL/cWvvK0s302OgAUFU/nuQVSR64dC8ADOWvkzy/tfa6pRtZ10YGgKq6R5L/lOlTPwAs5bVJfrK19vWlG9mtjQsAVXVikrckedLSvQBAknclecamXRLYqG8BVFUluSKGPwAHx5OSXLGaURtjowJAkhckuWjpJgDgW1yUaUZtjI25BFBVD0nyoSQnLN0LANyNW5Kc1Vr7q6Ub2YlN2gF4aQx/AA6uEzLNqo2wETsAVXVqks9kswILAOM5kuSBrbXPLd3IdjZloP5ANqdXAMZ1TKaZdeBtylB91tINAMAObcTM2pQAcPbSDQDADm3EzNqUAOCnfgHYFBsxsw78TYBVda8kG/XrSgAM78TW2leXbmIrm/A44Ht2HHtz/GogAOt5V5J7r3nsPZMIAAu6vbV2zdJNALB5qur2pXvYS5tyDwAAMCMBAAAGJAAAwIAEAAAYkAAAAAMSAABgQAIAAAxIAACAAQkAADAgAQAABiQAAMCABAAAGJAAAAADEgAAYECH/XHAe6qqKslZSS5I8pgk5yW5z6JNARxef5vk3UmuTHJVkg+11tqyLW0uAWANVXVMkn+V5OeSnLxwOwAjeeId/vONVfXSJL/cWjuyVEObyiWAXaqqhyd5Z5L/GMMfYEknZ1qL37lam9kFAWAXqup5Sd6b5AlL9wLANz0hyXtXazQ7JADsUFU9Nsmrk5y4dC8A3MWJSV69WqvZAQFgB6rqXkl+M8mxS/cCwFEdm+Q3V2s22xAAduYVme72B+BgOyvTms02BIBtVNVZSX5q6T4A2LGfWq3dbEEA2N7jk9TSTQCwY5Vp7WYLAsD2zl+6AQB2zdq9DQFge+ct3QAAu2bt3oYAsIWqOjbJo5fuA4Bde/RqDecoBICt3Se+9w+wiU6MZ7NsSQAAgAEJAAAwIE8D3Ds3J3nS0k0AbLh3Jbn30k0cRgLA3rm9tXbN0k0AbLKqun3pHg4rlwAAYEACAAAMSAAAgAEJAAAwIAEAAAYkAADAgAQAABiQAAAAAxIAAGBAAgAADEgAAIABCQAAMCABAAAGJAAAwIAEAAAYkAAAAAMSAABgQAIAAAxIAACAAQkAADAgAQAABiQAAMCABAAAGJAAAAADEgAAYEACAAAMSAAAgAEJAAAwIAEAAAYkAADAgAQAABiQAAAAAxIAAGBAAgAADEgAAIABCQAAMCABAAAGJAAAwIAEAAAYkAAAAAMSAABgQAIAAAxIAACAAQkAADAgAQAABiQAAMCABAAAGJAAAAADEgAAYEACAAAMSAAAgAEJAAAwIAEAAAYkAADAgAQAABiQAAAAAxIAAGBAAgAADEgAAIABCQAAMCABAAAGJAAAwIAEAAAYkAAAAAMSAABgQAIAAAxIAACAAQkAADAgAQAABiQAAMCABAAAGJAAAAADEgAAYEACAAAMSADY2leS3LbmsTfO2QjAoNZdS2/LtIZzFALAFlprX09y7ZqHv3vOXgAGte5aeu1qDecoBIDtvWfN466atQuAMa27lq67dg9DANjeG9Y45pYkb5q7EYABvSnTmrpb66zdQxEAttFa+8Mkr9nlYc9vrX1oL/oBGMlqLX3+Lg97zWrtZgsCwM78TJIrd/hn/3uSy/ewF4DRXJ5pbd2JKzOt2WxDANiB1trNSS5M8nNJjnZTyY1JLm2tPae1dmTfmgM45FprR1prz0lyaY7+rYCvZ1qjL1yt2WyjWmtL97ClqjolyZfWPPzG1topM/dzepInJrkgyRlJPpjpJpV3tNY+N+drAXBnVXVqkidnWoO/K8n1mdbgP22tfWLm17ohyclrHn6/1toNc/YzNwEAAO7GYQ8ALgEAwIAEAAAYkAAAAAMSAABgQAIAAAxIAACAAQkAADAgAQAABiQAAMCABAAAGJAAAAADEgAAYEACAAAMSAAAgAEJAAAwIAEAAAYkAADAgAQAABiQAAAAAxIAAGBAAgAADEgAAIABCQAAMCABYE1VdUpVnVdVJy3dC8Boquqk1Rp8ytK9bCoBYBeq6tuq6jeq6iNJvpjk6iQ3VtX7q+oVVXXCwi0CHFpVdcJqrX1/khszrcFfrKqPrNbm+y/c4kap1trSPWxple6+tObhN7bWZkmHVfXsJL+R5LQt/tiHklzSWvuLOV4TgElVfU+S1yc5a4s/9tdJfqK19gczveYNSU5e8/D7tdZumKOPvSIA7KyHpyb54yS1gz/+lSTf3Vq7rvd1AUiq6uFJ3pvkxB388SNJntpae8cMr3uoA4BLANuoqvskeW12NvyT6Q36uqrydwvQabWWvi47G/7JNNdev1q72YIhtb2fTXL6Lo95YpKL96AXgNFcnGlN3Y2HZlq72YIAsL3Hr3ncE2btAmBM666l667dwxAAtnfumsddMGsXAGNady1dd+0ehgCwhaq6b5JT1zz8EXP2AjCoddfSU1drOEchAGyt5+/H3y1AP+vwHvGXAwADEgAAYEACAAAMSAAAgAEJAAAwIAEAAAYkAADAgAQAABiQAAAAAxIAAGBAAgAADEgAAIABCQAAMCABAAAGJAAAwIAEAAAYkAAAAAMSAABgQAIAAAxIAACAAQkAADAgAQAABiQAAMCABAAAGJAAAAADEgAAYEACAAAMSAAAgAEJAAAwIAEAAAYkAADAgAQAABiQAAAAAxIAAGBAAgAADEgAAIABCQAAMCABAAAGJAAAwIAEAAAYkAAAAAMSAABgQAIAAAxIAACAAQkAADAgAQAABiQAAMCABAAAGJAAAAADEgAAYEACAAAMSAAAgAEJAAAwIAEAAAYkAADAgAQAABiQAAAAAxIAAGBAAgAADEgAAIABCQAAMCABAAAGJAAAwIAEAAAYkAAAAAMSAABgQAIAAAxIAACAAQkAADAgAQAABiQAAMCABAAAGJAAAAADEgAAYEDHLd3AIXZSVb156SYANtxJSzdwWAkAe+e4JD+0dBMAcHdcAgCAAQkAW7t16QYAWJs1fAsCwBZaa19O8oml+wBg1z6xWsM5CgFge1cv3QAAu2bt3oYAsD1vIoDNY+3ehgCwPW8igM1j7d6GALC9dyW5fukmANix6zOt3WxBANhGa+0rSS5JcmThVgDY3pEkl6zWbrYgAOxAa+1Pk1y+dB8AbOvy1ZrNNgSAnXt+kmuXbgKAo7o201rNDggAO9RauyXJhUmuWLoXAO7iiiQXrtZqdkAA2IXW2g2ttUuS/GCSTy/cDgDTWvyDrbVLWms3LN3MJvEwoDW01n6/qs5OcmmSxya5IMkZy3YFMIzrk1yV5H8nea3Bvx4BYE2rN9yrvvHvVXX/JOcmuc9iTQEcbn+b5D2ttS8u3chhIADMZPWG/JOl+wCAnXAPAAAMSAAAgAEJAAAwIAEAAAYkAADAgAQAABiQAAAAAxIAAGBAAgAADEgAAIABCQAAMCABAAAGJAAAwIAEAAAY0GF/HPBJVfXmpZsAYCOdtHQDe6laa0v3sKWqOiXJl5buAwB24X6ttRuWbmIrLgEAwIAEAAAYkAAAAAMSAABgQJsQAJ64dAMAsEsHfnZtwrcArk5y3tJ9AMAuvLu1dv7STWzlQO8AVNWzY/gDsHnOW82wA+vA7gBUVSW5Jsk5S/cCAGt4X5JHtwM6aA/yDsBzYvgDsLnOyTTLDqQDuQNQVcdkSk5nL90LAHT4QJJzWmtHlm7kWx3UHYDnxvAHYPOdnWmmHTgHbgdg9en/A0keuXQvADCD/5Pk7IO2C3AQdwB+OIY/AIfHIzPNtgPlQO0AVNWxSa5NcmZHmb9O8s/m6QgAkiS/nuTvdBz/kSSPaq3dPlM/3Y5buoFv8U/SN/yT5JWttTfP0QwAJElVPTjJr3aUODPTjLtino76HZgdgKo6LtN1kjM6yvzfJGe01r42T1cAkFTVPZNcn+Q7Ospcn+SRrbXb5umqz0G6B+DH0jf8k+QVhj8Ac1vNlld0ljkj06w7EA7EDkBVHZ/kw0ke2lHmr5Kc2Vr7+ixNAcAdVNU9Ml3Lf0hHmY8neURr7dZZmupwUHYALk3f8E+Slxv+AOyV1Yx5eWeZh2aaeYtbfAdglaiuS/LgjjIfzwFJVAAcXjPtWH8yycOX/tB6EHYAfiJ9wz9JXmb4A7DXVrPmZZ1lHpxp9i1q0R2Aqjoh06f/Q3NXJQCH24zfWnt4a+2WebravaV3AP5p+oZ/krzU8Adgv6xmzks7y3xHphm4mMV2AKrqXkk+muSBHWUO3C8rAXD4zfTLtZ9J8rDW2lfn6Wp3ltwB+Mn0Df8keYnhD8B+W82el3SWeWCmWbiIRXYAqurEJB9L8u0dZQ7k05UAGMNMT6/9bJLvbK19ZZ6udm6pHYB/kb7hnyQvNvwBWMpqBr24s8y3Z5qJ+27fdwCq6t6ZPv0/oKPMB5KcIwAAsKTVLsD7kpzdUebzmXYBbp6nq51ZYgfgX6Zv+Cc+/QNwAMy0C/CATLNxX+3rDkBV3TfTp//7d5R5X5JHt6V/whAAklRVJbkmyTkdZb6YaRfgpnm62t5+7wD8VPqGf5JcZvgDcFCsZtJlnWXun2lG7pt92wGoqpMz/Wb/KR1l3pPkfAEAgINktQtwdZJzO8rckOShrbUb5+lqa/u5A/Az6Rv+iU//ABxAM+0CnJJpVu6LfdkBqKr7Zfr0f9+OMle11h4zT0cAML+qujLJBR0lbsq0C/ClmVo6qv3aAfjX6Rv+SfKiORoBgD3UO6vum2lm7rk93wGoqm/L9On/3h1l/rK19j3zdAQAe6eq/iLJ4zpK3JxpF+ALM7V0t/ZjB+DfpG/4Jz79A7A5emfWvTPNzj21pzsAVXVqpu/9n9RR5n+11p4wU0sAsOeq6s+SXNhR4suZfhfgczO1dBfH7VXhlX+bvuGfJC+coxGYQ1WdkORRSc7I3v//h525Lcn1Sa5trd2ydDOw8sIkf9xx/EmZZuie3Q+wZzsAVfXAJB9Ncq+OMu9srT15ppZg16rquCQ/luQHMv3W98Oz7GO0ObojSa7L9KyQ309yRWvttmVbYmRV9Y4k39tR4qtJHtZa+8xMLd3JXgaAy9P/q0bf11p7+wztwK6sftTjoiQvS/KIhdthPR9O8oIkb/L7ISyhqp6S5G2dZX6ltfbTM7RzF3sSAKrq72bakjuho8zbWmtPnakl2LGqOifJa5Ocv3QvzOLqJJe21t63dCOMp6remuT7OkrckuSM1tqnZ2rpm/ZqK/PfpW/4J679s4CqemSm63aG/+FxfpI/Xp1b2G+9s+yETDN1drPvAFTVgzJdh7tnR5n/2Vp7+kwtwY5U1UOTvCvJg5bthD3yqSRPaq19fOlGGEtV/VGS7+8o8bUkZ7bWPjlTS0n2Zgfg+ekb/onv/bPPquq0TJ/8Df/D60GZdgJOW7oRhtM70+6Z5N/P0cgdzRoAqur0JM/rLPOW1tqfz9EP7MKLMn21j8PtjPiAwT5bzbS3dJZ53mrGzmbuHYAXJDm+s4Zr/+yr1SfCH1+6D/bNj9sFYAG9s+34TDN2NrMFgKp6WJJLOsv8Xmvtyhnagd346fTftMrmOCHTOYd9s5ptv9dZ5pLVrJ3FbDcBVtXr0h8Azm+tvXuGdmBHqurkJJ9IcvLSvbCvbkxyemvtxqUbYRxVdV6mr6X2eH1rbZYdy1l2AKrq4Ul+tLPM7xr+LOAfxfAf0cmZzj3sm9WM+93OMj+6mrnd5roE8MIkx3Yc3+LGHJbxD5ZugMU49yzhRZlm3rqOzUz3ynVfAqiqszL99nZPAPhvrbWLuhqBXaqqY5L8TZIHLN0Li/h8ktNaa0eWboSxVNWbkjyno8TtSc5urX2op485dgBelP5P/5fN0Afs1nkx/Ef2gEzvAdhvl6V/F6B717zrcaZV9V1JLu7s4Y2ttfd31oB19PzaZEvyO3M1QpfnJqk1j316kqtm7AW21Vp7f1W9MdN7d10XV9XLWmsfXLdA1yWAqvqdJP947QLT4zv/Xmvt2o4asJaqenuSdR83fXVr7YIZ22FNVXVV1n92wztaa0+ZsR3Ykap6VJL3p28n/o2ttbVDxNovXFV/P9PjUnv8tuHPEqrq3kku7CjxR3P1Qreec3Hh6r0A+2o1+367s8xFq1m8lp7k8eKsv+2WTDcxvKTjeOjxfen71UoB4ODoORfHp+9RrdDjJZlm4boq0yxey1oBoKrOTfLsdV905Q29dzBCh56vgN2c5M/maoRuf5bpnKzL1wFZxGoGvqGzzLNXM3nX1t0BuCx9n/5vi0//LKvnBsC3t9Zuna0TuqzOxds7Snj0OEt6SaaZuK7Kmt+k23UAqKoLkjxrnRe7g99qrV3XWQPWUlXfmeTMjhK2/w+ennNy5uo9AftuNQt/q7PMs1azeVfW2QFY+3rDyq1JXtpZA3r0fuL7w1m6YE6958QuAEt6aabZ2GPXs3lXAaCqHpfkmbt9kW/x+tbaxzprQI+exf4TrbUPz9YJs1idk090lBAAWMxqJr6+s8wzVzN6x3a7A9B73f7rSV7eWQPWVlXHJnlaRwnb/wdXz7l52uq9AUt5eaYZ2WNXM3rHAaCqnpD+lPza1lpPSodej0vf0/9s/x9cPefm5EzvDVjEaja+trPM01ezekd2swPQ++n/a/Hpn+X1hNjbk/zJXI0wuz9J33eqXQZgaS/PNCt77HhW7ygAVNWTkzx17XYmr2mtfaqzBvTq+c73la21G2brhFmtzs2VHSX8HgCLWs3I13SWeepqZm9rpzsAvXf+35LklZ01oEtV3S/JYzpKuP5/8PWco8es3iOwpFdmmpk9djSztw0AVfXUrP/AlG94dWvt0501oNfT0vfoatf/D76ec9R7gyh0W83KV3eWefJqdm9pJzsAvdf+v5rk5ztrwBx6rvHemOQv52qEPfOXmc7VutwHwEHw85lmZ49tZ/eWAaCqnp5kx3cUHsWvt9Y+01kD5tCzuL+1tdZzgxn7YHWO3tpRQgBgcauZ+eudZZ6wmuFHtd0OQO+n/y8n+YXOGtCtqs5KcnpHCdv/m6PnXJ2+eq/A0n4h0wztseUMP2oAqKpnpv97sb/WWvtsZw2YQ+8nOzcAbo7ec2UXgMWtZuevdZZ53GqW362tdgB67/y/OckvdtaAufR8xes6P1+9OVbnqudhY74OyEHxi+l71HWyxSy/2wBQVf8wya6fLPQtfrW19vnOGtCtqu6R5CkdJWz/b56ec/aU1XsGFrWaob/aWeaC1Uy/i7sEgKqq9H/6vynJL3XWgLlcmOSkjuNt/2+ennN2Uqb3DBwEv5RppvZ48Wq238nd7QA8O8m5nS/2K621L3bWgLn0bOnemuRtczXCvnlb+h6v6jIAB8Jqlv5KZ5lzM832O6nW2v//lykhXJPknI4XujHJQ/1kKgdFVV2d5Lw1D39na633h7BYQFW9I8n3rnn4u1tr58/ZD6yrqk5J8vH0PcjsfUke3e4w9L91B+Ci9A3/JHmV4c9BUVWnpm9Hy/b/5uo5d+eu3juwuNVMfVVnmXMyzfhv+mYAqKpjklzW+QJfSnJ5Zw2Y0/cnucu1r10QADZXz7mrTO8dOCguzzRje1y2mvVJ7nAJoKp+OMkbOosfSd91N5jbsUmO6zi+99GcLOueHcfelr7HC8Pcjs/OH+J3ND/SWvsvySoAVNWxST6QxC9gAcDh9aEkZ7fWbv9GkvjhGP4AcNidlWnmpzJtkV6b5MwlOwIA9sVHkjzqmCQXx/AHgFGcmeTiY5O8MskjFm4GANg/J1SSzybxfVcAGMfnKtPXXHq/VgAAbI4jlaRt+8cAgEPFJ38AGJAAAAADEgAAYEACAAAMSAAAgAEJAAAwoJ7HpCbJvWbpAgBYx1fXPbDrdwBaa7XusQBAn6pae4a7BAAAAxIAAGBAAgAADEgAAIABCQAAMCABAAAGJAAAwIAEAAAYkAAAAAM6JsmRdQ+uqhNn7AUA2KHOGXzkmCSf6yjwIx3HAgDr65nBnzsuyaeTnLZmgf9QVQ9J8rtJbu9oBADYmWOT/FCSf95R49OV5PeTPHOWlgCATfAHxyS5eukuAIB9dXUlOT/JVUt3AgDsmwuqtZaq+qskD166GwBgz32ytfaQb/wOwBWLtgIA7JcrkuQbOwD3TXJ9kgcs2xMAsIc+n+SM1tpNxyRJa+2mJC9bticAYI+9bDXzpx2AJKmqeyR5e5LHL9cXALBH/jzJU1prX0/uEACSpKpOS3Jl3BAIAIfJJ5M8prX2N9/4L+70MKDV//CsJDftc2MAwN64Kcmz7jj8k7t5GmBr7ZpMlwE+uk+NAQB746NJHr+a7Xdyt48Dbq19MMljk7x1jxsDAPbGW5M8djXT7+JuA0CStNa+0Fp7WpLnJrluj5oDAOZ1XZLnttae1lr7wtH+0J1uAjzqH6o6PsklSS5O8r1Jjp+pSQCg361J3pnkvyZ5fWvt1u0O2FEAuNMBVackeUaSs5M8aPXPA5LUbrsFAHatZfpBn0+t/vlAkre01m7YTZFdBwAAYPMd9R4AAODwEgAAYEACAAAMSAAAgAEJAAAwIAEAAAYkAADAgAQAABiQAAAAAxIAAGBAAgAADEgAAIABCQAAMCABAAAGJAAAwIAEAAAYkAAAAAMSAABgQAIAAAxIAACAAQkAADAgAQAABiQAAMCABAAAGJAAAAADEgAAYEACAAAMSAAAgAEJAAAwIAEAAAYkAADAgAQAABiQAAAAAxIAAGBAAgAADEgAAIABCQAAMCABAAAGJAAAwIAEAAAYkAAAAAMSAABgQAIAAAxIAACAAQkAADAgAQAABiQAAMCABAAAGJAAAAADEgAAYEACAAAMSAAAgAEJAAAwIAEAAAYkAADAgAQAABiQAAAAAxIAAGBA/w/5s5VPyeukDQAAAABJRU5ErkJggg==;" vertex="1" parent="1">
          <mxGeometry x="50" y="60" width="150" height="150" as="geometry" />
        </mxCell>
        <mxCell id="Ixr0ffq90QcaKTADXFyB-3" value="USER" style="text;strokeColor=none;align=center;fillColor=none;html=1;verticalAlign=middle;whiteSpace=wrap;rounded=0;fontSize=32;fontFamily=Helvetica;" vertex="1" parent="1">
          <mxGeometry x="10" y="20" width="172" height="30" as="geometry" />
        </mxCell>
        <mxCell id="Ixr0ffq90QcaKTADXFyB-7" value="" style="rounded=1;whiteSpace=wrap;html=1;" vertex="1" parent="1">
          <mxGeometry x="22" y="490" width="280" height="160" as="geometry" />
        </mxCell>
        <mxCell id="Ixr0ffq90QcaKTADXFyB-10" value="" style="shape=image;aspect=fixed;image=data:image/PNG,iVBORw0KGgoAAAANSUhEUgAAANUAAADTCAYAAAAWGVaeAAAAAXNSR0IArs4c6QAAAARnQU1BAACxjwv8YQUAAAAJcEhZcwAADsMAAA7DAcdvqGQAAEGxSURBVHhe7d0JuHVVWQdwmufBKQdCsVIjRxRNFIdQ1EoJywwMgjDTFExDoBBUUATjUVIZCsqQUhkUFYIYRUHQFFMzc0qy0rR5nofd/a38H99vd865H+d8h3vuPfv/PO/d++y7h7Xe9f7X+65hr71TN2Ap8D//8z/df/3Xf3X/8R//0f37v/97k//8z/9sx/77v/+7iX3H/K8P11cZsHEYSLVB6JOgEof867/+ayNPn1SO5X8ECXPOQKblwECqJcU0gvhfyIdMA5YLA6k2CDwMEc4lzAtJKlHs59xxBEIw1//bv/1b98///M/dP/7jP3b/8A//8MX/DtgIDKTaQIQwyPB3f/d33V/+5V92n//857vPfe5z3cc+9rHu937v97r3ve993Q033NDEvmP+94d/+IfdH/3RH7Vz/+qv/qr7p3/6p0auARuPgVQbhJtvvrkR5Morr+zOOuus7hd+4Re6Aw44oNt77727Bz/4wd3tbne77hu/8Ru7L/uyL+t22mmnJvYd8z/nfN/3fV+3//77d0cffXR35plndpdeemn3gQ98oPvEJz7xxacM2AgMpJoRf/M3f9O2PMzf//3ft/1AGBcIy3Qs8Ei80MUXX9y96EUv6g455JBGjG/4hm9ohPnKr/zK7qu/+qu7r/qqr2oSIk2SnOca1zqGcO7p3ocddlh30UUXjUJBXkxoKB0gXQFP6ThPCf38DLhlGEg1JxAGtG0Yp61QLG2kv/iLv+h++7d/u3vuc5/b3fve9x4RhtdBBr+/4iu+ovvyL//yJiHNN33TN3Vf93VfNyIMse+Y/+VYPJlr/Z+4n3O+9mu/trv73e/e/czP/Ez37ne/e9Qm02uYUFH6CIxrsw245RhINSMYZq3ttWscg7/9279tbZ7jjjuuu/Od7zwyeobO4EMIkt/IFSLV/yMJcpBKMMJLfeu3fmvzdl/zNV8zImzk67/+67s73OEOo+vueMc7dieeeGL313/91yNPCyGVCmJol82PgVRzAJEQKBA2veMd7+gOP/zwZuQxbsaPLNUT8TBIQBxHLuflHITok4Q45n/Os1/bXAT5+sR030pm57zsZS/rrrrqqu7P/uzPRpUB2P+Xf/mXL/4aMAsGUk2AMG6aqN3V+AnzPvKRj3QnnHBCd7/73W/kGRh+NXrHeZW0owjv9C3f8i3bnFfDu0mCWNl3rXtoU+UYYiFPn3Qhrf8/4AEP6F71qld1n/nMZ1rbi6fifYWv4/JcZcBkDKSaAO2LacLwALlOO+207rGPfWwLr2K88SjVY9nPb2FhJQZh6Pe97327Jz/5yd0zn/nM7sgjj+xOPvnk7owzzmhi3zH/e9zjHtfd6173agTlhUIWxEVKv20rQZ0nXLz97W/fwkLHpEHaTz/99FEHCw88Ls9VBkzGQKoJGGdIVUAHhE6AkImnEGrFuGPMDBxh+iTaddddu4MOOqg799xzu49+9KONoF/4whea5xBK6q2rU5LsO+Z/DF9v3Z/8yZ+0MaxXv/rV3Y/+6I923/Vd39WIFpLl+dLGm/FeOS5N8W7I9+xnP7u74oorWt7G5bnKgMkYSDUB4wypyq/8yq90t73tbZtBfvM3f3PzApEYtC3PFILxDk95ylMaAYwl/fmf/3nzeKTfjvGMSfC/2qFgP2HbZz/72e6DH/xgd+yxx3b77rtvd9e73rWRp98+q8dCevu3uc1t2phXzes4GTAZK08qBmKMhidI+AMJ7+IlGK0ucw375zznOSPiIA0PVNsu/hci8QyPfvSjW+h23XXXNU/kOX0j7ct6GHdNFfAsg8vGxR72sIeNvKj0Sa9012PVux5zzDHNK8ozD6kdxUPGY9JZ1VdFnr+qWHlSMQwGQqoxOG5gN4bj/+9///tbR4Q2CaNM24URqvVjlPEAyKTWN60oA6+EZ6kEGCfrYdw1VXg+z0EGz/7d3/3d7pRTTun22muvlk7p5lWFirVCECL6n+N77rlnm/WRCgYyMJyKoQ/HVr1bfmVJpfAZBgNg6CFPBVKBc3iZ+9znPiPCpC3CE5k2ZJ8xMkpGKzx8z3veMzLIGBtR2/s9TdbDuGuq1LZY8iYtBoFf85rXjAjE0yKVDoy0t9K5IY977LFH9853vnNEFASFcT2AnkuXdfxuFbGypIrXqJ5jHBiP6T566xghY9PBoA2SGl6NnzbJE5/4xO5Tn/pU8xTu6fp0MNiGWI5Pk/Uw7poq8uV5uso9O/lDMm253/md3+n22WefVhEgVHol5Qm5dtttt/Zbns3K0Ckj3Qjq/uPgfwi16uNcK0sqxsXwGEKMP8i+4xdeeOEoRCIhFlGjp7Pi277t27rXve517TpgXH2iMjbPvDUgX/LYJ0CM3v9Amu90pzuNCKTTRTtLnuONeV6dLG9961tHldA4cuWZyLzKWFlSxTtVw2AUjIbh2b7pTW9qRpXePfvaU7YRxmfcyLQk9zLDYlz441nCydo+WTQ8K+FaH9JjqpK06s4/8MADR3niueqWIBjR5e6a6IjOAvn3m25XGSvfUREwCEbCEDXGGU/aT7wR8thXi/NK9nfZZZc2l864ktq/hj1q6+oRAs+o5y0SjNvzq8dMSAjyjHR6+HTx//zP//wob7apSNKpYXuXu9ylu/HGG9s9XNe//4CBVCMwMLUvQpl+ZEY5IpHMPoggm1BJgz+kqURBTF4pxpawaKOASNIkHcknL4XgFbysqVYqDuNVNc8IZct7PeYxj2nXZ2pT9VYDVrxNxRhq/K9m1/X8Qz/0Q6P2BFJlLIckFHzDG97QyAeVPLdmeDcP5FXeQ7LowSyNU089teU17UdtSR0ZiJZjXqjk5ZAr17oXHay651pZUqV2Tbsjv3/2Z392NJ0IgWx5JkalV0xY9Ja3vKW9yh5kgJRx2mdcyw5eSppteZz6KgiPdcEFF7R8q1xq+JfKRhjojeOQEvQqDlhhUjEGtTVJG+Okk04a9eYxouqhHFdT67yocB+hXwzU/ULQZYY0VvIjhrRXGGszBpdxq1Q20YtOG+dAdBkdrDJWllQ8CkNKW+imm27aZmCX4UR0KfNSr33ta9u5tR2VWrpiM3iqpLFPLCEt3eQ9sZe//OUjjxViqXAyUGwy8R/8wR+MZlqoXFy/ylhZUsU72ZInPelJI0IJc5DJVptKm8IMbtDm0GZALLPKK6n6Df9lRryJvNcXLYXD8uQYwvFohx56aNMBnWSeY6ZoIdhP/MRPtFWdotNVx8qSCkKIN77xjc04GExq4GyJjgvtLhNUM3WJsamdE+rxWgxxsxAreVdB1M6V2smAJCoPM9/NY4xOzB7JPEchIHLpuFn1sC9YaVJpWFsqTBdxCETirXRU3O1ud+v+9E//tJ2vNq5gcDFCYQ/jRKrNEP5NIgCyJSSWD6Gccz/84Q933/Ed39GIJRxMqJzt4x//+PZu10CsFScVvOIVr2jhDMNIb5/GOVLZ1zFROx4QibeyZYDjPNNmIBUgQPKgciCOyW8/lPPbuBwS0VfaWEQ3u/Er74lB9XariC1Lqr5hMxzepOJDH/pQt/vuu49qW22GGIoQxyvrQSVPxqe2MpBLeEuPlSTf+73fu034l4qIeFVEO5OuVDqQXtGKzVLpzIot7akYQ/UyamXGkhDlqKOOarVuGuEa32pg7StGYj4faFOAe/UNZCuD8WtLIoYtXHvttaPeUJWRrd90ZmIuz0+/zo/+o++glslWxJYmlTZOLVC1ZwpbCGc9B+RhFGrfTEtiINaeAG/6po2R2rdvJFsV8pk881oZ3P3Jn/zJFh4nbFYhCf9s73//+7fztMVyLX1nfxzJthq2LKlCHEi4ocZNCGigF3nMlGAMDMQ+Y2EYus4Zh8myEKOA1NpbHbXDAnTUIIvJt9/5nd/ZCJW2p55TeuS98gpMPLuyiIdX0fm9lbFlSaUQ09hWiGrHDEoiVt4hqm0CpBICapAzpOrpErK47yp4qhrm1ilM2pP098IXvrCFfjx8vFY8l3ZXoAzoLkRKRbeVsWVJpf1EAAkYQkjl9XCF358syyisQfHHf/zHI8/kupAog6TVa21VpBLJGFY8PCDGe9/73u4e97hHI1TaVyEXnVrbIufSX7zdKnj5LUsqhp/aUa0bkjmmvcQQhCzpxSIM4/nPf/6olmZI1tcLsh9D2+qgr0w/ok+EQA46FBp7OTMk4rESPhNLpIEQ0rUk4eBWx5YlVbwLI2AcCtQx4YgaNqFKDMG+GeiW9OqDh2MMjClGtgqgL3nOJ3ageuvf+q3fGk1AVjnRZSqohzzkIaOwL4S0XQUsLakUBkJEFJBCUfPxFIgS4vTh3BSo8xRoQr/Xv/71bbY5TxVSEV7LR9Qm3XPVkXKgUwI6LsxGobuQKeE0svkWF30m9FZ24zyV+zpP+To3ZRwvpyzz/KRhmbHUnqoWov0KCg+xQiIFoPD6swEgBeOLhSn8jEdl63Vy5zh3wJdAJ5FKKnp+3vOeN/L6vFUlmHUGlYfr+qj3S/kpS9InXn3uuHstG5aWVFXpUXwUPikud35qPFLP8z+hm2WXhXsZuIwBkHe9613t3Hi1Af+HlEW/POBtb3vbSH8GznX+2Ddu5UN3Kr4K94Dch+TeFSnnVJrTzl02LC2phAGTyLO9qMrn2bz346sayBRixSAYQTxc3xBWHTFkEuNm7GCysU4KOuSleH1i37SlT37yky38plNloFyRpH+/iP+FsOPAJtxjmbEpwj9KVohV+jWZc/twbcBz+SCbRTERqHZU2JplPWA8QoBKguicXn1nmA6jU5UVHVt01Bf10wZO9DCNNHlOv7xd47n+t+xYalIBharhhGSp5XJcASmoFFgtLKEeyTHjJVnuuIoaldd65StfOTKYAdsihk6qjkKSzKGMTtNZYSs8RCrnBcou9yHKqC9gq8zTyeG6zYClJRWibI8SFVY6J0h6+kgN4xSOT3IiUcamhCmMQeFbBjkFPGBbTCKV8qFvayRmWIJuE1bT66/92q+1yq2O7dGxca58jdL/lVcqRs+ZBM+s5bqMWFpSqZlSeKDwfD3DONJ5553X5pf98i//cvdLv/RLbR7f8ccf3z5cHfH5GJ+vcZ6lmxW8j6JpT+UV+TSqtQkUMChUhTvgS5hEKjCFycuJaaN6t6q2Va1O9fa3v7371V/91e6cc85pZWYmO++mJ/bFL35xKz/LovlCSs5Txso6X0wJPJttLDMWRiqGqRDiwqsHyH7+r/ZxDk+jRouHMuh4zTXXtAUe999//27vvfduk119yExbqM6GiCjQdESk9rQV31toP692uB6ZGIHFS9ScIZO0DJiO6EqkoEJSFsb/RAIZECbaVsqrzrH0Eqjfzq0EVNH5rWy+/du/vbXVnvCEJ3RPfepTW6XpiyWVYMDD8XS8F3uyzeI1FdLJroj/pZKYJPNg4Z4qBJEptVpfKf7vfaXUPtbT0/bxHVqvb/dDtRRAFcfT65RzhB7plSIhWF+cZ9BXYSA1Y6nx/4DJYHwqIPry/eFayfX3o39llCXPIv6HTMrCuc5xXFn6nXupLD3Hy6MG8T/+8Y+3dPBeppBpN1cvavbH5z//+bHhYp9EfZkHCyNV7SSQ0eqpFIT/VzJdddVV3aMe9ahtlB2hVAoNYRRA5prZVwgKxjY1nVqQF8p1/pf/qz3NUrd1v4MPPrgZRq3NBmwflC19pezolyeif7pPGRLliDjKQdmIGpSV3/U84ritsnNevVfOd2y//fbrrr766i+m5kvp6b+dzc5qWD+OSFXmwULDP+FbnTcGao2EV8IG8bNPZ0ZhlEnxCofiSchEFEz97VwFqH3k2kkeqRZozkkoqO2lVuNFK/kHTEbCdnoTgfz0T/90K4d+dKAco2/lZr+WkX3lhiDOTdkqq5yT3zycsFFZs4ssk6ZshYp6cHmvRBqaEqKPkIRNCv2ku0+ivsyDhZHKcl7JHCIxWGTior1aoZ1kcDBKUxgUq2Dy5QkKjpJDMv/3m0JDpHE1XRX/Vyjub+ue7qcw/P+ss85qNVmUOa9SVwHKNl6B7nQO0SUjT0dQCKPMKknovRKriuMpT9e4F9uoZRwiZV/E4bcy9dE9S85l0BkQCfETBqoQKoHGyTxYaJuKwmUmjUYhn2WChQqURRGURWmpgRQC5ZAo0XkhF0kBhXQUG3E/kpAhhZJrIzlm3brLL7+8pQ+kOekdMB21/cKQ0xlB55UExG/lY7+WZcT/Qgzlyw7yP9dWUqbslPGkr5Mgl8pS5Q7KddOHf1Azcckll7Q3QmWYUmSe0VflhyD2KdF+lE0o8KEPfWh3yCGHdGeffXb7bKiPW2ubIa9w0mItXpD79Kc/3d1www3t63+6a62i6vlmVOR5VlLSKZJwVKMWodLOGzAdQisVZfYtEe0TRMpUGXvl3idQhYYm15q1rrx+//d/v81wTy8djyJ68V1lzYFf/MVfbOUlktGT6H5kEunYTSpe2/Qs2tfhpQcZaoU5jkhV5sHCSBXD5IaPOOKI1kUq05VEUVb2E1f7TWnf8z3f07rSX/rSl7Z3d/qLWSb8SCdDvz2ksJIOiqJQpPP9WmNXPpvjOPILS0Mu3esDpoPegf4ysEvfFt00MdnYlIpNGSkb58SzpVkQOE7GGbOyMCvjJS95SfvaoyEVZGEjiMNmYj/CQN7Lb6TO/y3wc8wxx7Sy9xzey7OmyTyYmVRRUPVGYla/0zik4B/5kR9pmUSW9LapabSJQighWNpKeuUOOuigFiZ6ZTuFZ6tmC0lSEJOkr6S+jLumyoDpGKezKuth3DVVIL3E+a3sffHfLA2DxyEQEYH4XUNLbXArDCdcNN71gQ98oN1LB4v71VA/tjYvZiaVBCReVQulEZhEWtlV16rM8FJx16lZEIsSEu4JFYQIl1122TbffgooAFkpul8A42QckaqMu6bKgOkYp7Mq62HcNVVAmY8b2/R/FaxZMqKYtOVskSq2hlS2JN9qRj7XQWbRgHuy6ayeNQ9mJlU8VFy/TCKWxImtZQ6peKe0i3gjjdh4LMfVIhTjFYLcs/bSuD+iIkJFlD9J+iTqy7hrqgyYjnE6q7Iexl1TpYKxJwqq/4vtCRFf8IIXjNpbIVIiIrZnH7HSsaHdxg7cV+gPibBq9DUL5mpT5eG2Mshz1Tdr44plzHdz81tNohaxKOOnPvWplrF4u7Rn1FDxTOkCpVDxuPNCjkXJgOkYp7Mq62HcNVVUpDUcY2M8lnCwdo5AyKXNpNePx4q3QqgQy2+iMmeL2mkJA9kU2M4bBs5MKglh5Aye4SODRCbhNbQjMiUjenP04Om5k4HEzZRoH+z3ayvnOt5v5E7CuIKqMmC5wa6UNTLZ9u0hRAoBeBs2CSbt+vSPT6hWz0X8ThuLmHgdQrlnOqzG2UyVaZiZVHGZEqQ71GxkpEmC+5khvNNhhx3Wzge1BEQZkJ4ZSqXI7c1IH/W6cTJgcwBpqudQdohmy25IKmOwTDe7MbtdV75KPOGfpgdhizrJHFPxW05N8yX3YZfuMU2mYa7wT0K4YIt/hDg6IhArpEqvHkKZ1g+I41qgoBA0DVLbccaPaJQY9z8NuX6SDFhuiEqISrtfXjVaSWcDMsWO7Gs+wGmnnTYK/bTl2WNs0jZ2qjeRfbFnNjmOSFWmYWZSSTjolJAokjhW6KdrPLWCQVdfi6CMxMEVOSaxMjYOjpPtJUQl0DgZsNzol9Gkcot3URH320Lmnfq/wd8HPOABI9usERXCIZsODHNAQYXfJ1FfpmEiqZLAtG+wF1JzIIhaAHG8p5SBW8y3TXvqh3/4h9sMh5qQWtMMGLBIsFU2a3zKZ2bZZLyTzjNbISKy2T///PPbdbUCFx2x/xAYJ6ZhqqcKsdL2gcw6N2KOPElYEkUyqGuqiQ+rBe5XEzdgwKKg4mZv1XuZQcMm2SZPpeKvnWns1jiW6VRQl/xOOwtBZ/ZUkDaO8AwR3BCDzZQwpyqJ4065UV2ZthLqPZcsUg9hvfvE6w0YsCiw1XGVt0petzsbZbskkVXaWl6CzCskvBKb561s0xcwDVNJ5YYhgJu5MViY3sO9om5bG362j3zkIxvxAnP20rkgoeNi4wEDdiTYWWwXuersCcumWf+RrSIUYmWmj7YVgh1++OHt3Nox5j7j+gT6mEoqicp4QMI2n/a3poMEkCTGAJuOigc+8IHd9ddf364BrrLf/z9gwKIh7GN7yIUY6QvI/zRfrJ3BESCW3un0EjomDDTpmneq5HTteja8LqkkJh7qox/9aEuIRGQuVbyTePQ+97lPm7sX1Hi2Nu7q8QEDFgFkCpAhCEFsf+M3fqM5CM0XHipzBR3TmXHPe95z9N1nTSEkXa89BVNJ5QaYihB1ChL36KGZMOs3j2WpKUhnhmtJ7hMg6oABi0S1NwQjKvMcT9vo6U9/eiMRp4BcIVZ6CM24EDomytqeSGsiqeJNkghrsGlDCfM8LB7K1Hrbfffdd+SNJCCZSOcGIJdQMLXFgAGLRMK17KfToRLDi6k+WpFmDAdhSxCMzefDFdX7TcNEUqVB5kbm9VmIUsyJVBjt4dnXnW6F1zw0I9sDBiwrdD4gGLnxxhsbidhzerD9zox2X96sU+rqENM4rEsq0z28KcszxTV6qB4TidC+soqN8+OR0gYbMGBZEW/FZoWCmQyeSIznSjhoIaIs5Om69TzW1DYVcnCf3pj0IAQiSBU2P+IRjxh5prja2ikxYMAyIg4gtsqGLd6aiQuchnZV7Nyr/M5Nb/g0TCWVONRgGfZmHl9cIuEqdTsiUxKJya4bMGCZoa1P2Gps17r76Xwj8VqIZt/41vZEYRNJldkU5u6l8cZL5YHkaU97WktYut7jUren23HAgI0GMtUwENh7Joaze/tIxfZ5K2Dr0zCRVLyPnpFKJt4q7Skze82RivtELO0v16330AEDlgV9z+P1pMyqIDrh2Lx9dq+TIs2cSZga/r361a9uZEqDzc2RSSPOjF+kS3+/B+lRkcjt7XocMGCjIOwTUXEKGeJhyz5h64v7bJ6XYvM1Qvv1X//1du40TA3/3NyNkCiNNuKYJcTC2DruNIR+AzYD0pMH6elmx8JA388KifQb2IZY1lXJdZOwU58EeZgJseY/hUQZYfbbKqRYzTPVttRmAm9ax9MSU6fHM97W7JA6oTIL09gXCnhZ00fPTBo264T3tm91qGWWm2++uaVb+olVfm297sDI6EBe0raGWnnSk3JnP7Eh/9+sPb/KXznTgSXy7nGPezR7J3mxkVhuL0voKe/Kn9jQTnYqKZCEQYktQyjbDIqlwSYBuheduxlJVYkThcYooigKBv+3robzVSY+yG3emGWuzNj/wR/8wTa0sNdee7V14n3vykz9ZZYf+IEfaK/vSPfDH/7w7vu///vbIKdlsC2VbW28vJJum31Q7iqU2EoiFrC/GYglnZUQ9uWHHSjjH/uxH2u2r5NCj2A6L2wvuOCCdk10EvuPHhqpqlLAjZ/1rGeNmMpLGfwlHnLuueeOFBp2Qmqu/v2WEQgUZdgPwfrIKwNqpdNPP70tQ+3FzHTaREeEbogaLfvLKklzenYj8qScd95559Zu/s3f/M1mD8CL1VcoAuXNc8VIN0v5p0KQ7r5jsAoufeic4FBso6MjjzyyRSo4ALk++W6k6hsU96YmYxyUnEKwpXBrZNdEhEy5lwQvO5Jmiqj5d5wIe3LckldC3nx2k04ouRqndqfOHD1HJMa7rKLGVTEYf0llmbwk1IkhWWPER/noC8HGTUPjvfo9acuM2Guk2jNYjYlO6IEORGj2VUK8mNA4yD1iL61NlVo7N/Y+lI8DjDMeL3f1E1CNM7JZoLZJ2rUlkCmj5qb95wuBmaJFueO8VF8of5llXJqJ/KmZs4qwfGfg37hk3kBALiEgXcUeYqibDdX2A57Iqx9VLxGVjFfzg5Bq5Kn88cNNQwbhXTom1MDpWrS1vl8fYan72KfczYKklRJDJsd01GiUUqLpK7aptfpCV2r8jGmMO2cZRVoRRrpT3lXq7JmsRaLdWNcb551qG2ozkirAgUoO6wbSEQ6QOBcRi3Yn5BpbdmPbSGWHUI4bvuxlLxspkzGp2XgspMqiGIEbxTttJoXKZyqT/A7MuP/u7/7uFhbRQWptkq88ekkzNXiE0hVC9eybQWplobzlWz5UKjmefBMdM8KjIG0uSMW87KhlXyH9KljRmw4JelDp1DLFAx06aZdVJ4IDo3EqDxD+qHl+7ud+buSdcrNsfW+qKk7ixt182SG/UaD9dBFb291YBCLJc1UmfWQ/v9XgQmU9aHr9bB/0oAe1D5Yts1h6W8+fNPvm8m677dZe1ku4r/zl0VblkWM8sn21uI+3QfVUvH21j2WFMD8dDRXsmU3ggoWL6KB6cWXOUx1//PEt3+5Ryen6/zdOZYzFajNuoNayjftzM92Im6EjYj3knRhKsC9PlPT85z+/5ZshpaFun2LV6Gps/9e+EALoETPGw8CM/9APHWrIThPjXRsp0slw9Goas5IP7SW1sx7OtLuyHkkGQUm81otf/OJRt7Ia2v22CvCCXcin8q+VDDs49NBDW7mHC3EusJMfFXr+xM1ukJqZQTEkPWB6fvrXbFbEIECe3vnOd45qa8pL+EdUKAzNwvdqsKoDyqwVzbjesT7UbhspaT8GtXJVuagYfIFQnutsbQunxjYYG8/OuACxqk43M+hIWGulZQ4lDsaWTnzMUC84rwbyHg+9U98FmvvkA2zYmFibAu2bwaswNlPbaRqEfMgQgxIKpYaOy2dE0YOa2TUkoIu+PvzuG3FfNhoxgqSFDpRtjMQAqIrDt8PknadKZwWSpeZWY6dCSU/qVgC9qFz0/qpMYhe2+CDM/8hHPrKNLSTvO6VNEegqTAztJrmRrYVfKG4rkCqGwJDE1/Itjxljsp8Vo4i5jvKe69RifXI5RpwT8kwS52+kSKOQr3oWJPM7hALhocVPeGp6YRv0oc2Z9UmcQ4fuB/2KejNCGcnHM57xjJENRHgrPcLer6rtSXqF5qmq63diLrStHkuPB2VvhdpIZSLfIYnlgM11lE9jM75tZJ9Yn6N+MjXKC6ITx91zM+iH0UhnLfs+tClUHMLdrENOeCkVTpoHKlukYmDO3wohoLJUyRx33HGjfEdEMSoV3x+OZ4eUe2tTpeai4Jtuuml0YW7CUyHWWWed1c7dCjVRiJFKxSKgaUOlEkEu7QozKiiPknOdRrljjEgbalwbZZosE6RH3uiCyBeSpOPB1szt+lZswj+e3Rc10vHj+lp7b1bgA24YXkqkVvOOH/VD7yqpVNA7JRShRIr1+rwLK6m4fb/NfXNu34A2I+QbkIJ3Ni4lr8Ykkm/e2kTTeCn60YCHGvpBDJJ+cu9pUBgbKdIpDwhQ01uNg02k00WP5T777DPSDUNLKLjLLrtsM8NgK4Be6MmCMInaIkjFS+dL93Tm3Hit0YwKLptRaHxRWGoi4gZ6xE499dRWGFul65QSKIQHls8MdgptUqloT4Bu6CC1MtAdstlWD+T3NKleayME4mlzLJUC9CfOOu/ggw9uumFkGRBP+/O8884bVSxbAWxcuR5zzDGt9y/RCwmp8r0AulMRpaJtHRVRMiBVLiYJifT+6AnaKl2mQGmgV49x9N08RV566aWjmhsBQyDQlWw//2dQdJkaqw/XRzYaPJB0KM86IwLkx/9CfrBv+hqdMKi+rrwlDpPyvhlBD0cccUTzyPHKRIWLF/FUKXdQKTVSpXYCjdLU0hToZmomSnzhC1/YeniWwSh2BKaRSt6JteHHkcoLfgHDzERT56rlTOOJGKYg1qKPqOU2UuQjXkWYJ28hhHfH/GYXKWv73iGjo1UhlejE+3KxDfZgSwwv5Ntryvz/kYqRUJ5/IJURc0x0E2Ff2hnGJBhMbrDZsb2kynkhVa2ETC5llGDBRYWg4W4aEDGjmTzkIQ8ZyYMf/ODWMbKRsvfee7e0Wp01SMWQdtSqk8oMmcwuIsK+zLIxNU1FCWxiLKkctO/E+9///iNSUV5cnzlisAqksk+szpvzgK4oLmMywPBMws3rIXSX60kImnsTz9tISTp8qUVFGjLIW/I7iVSJXGp+tiKptJHqa/V4oH1l34fhTO8CugknbEfhnx969ZxoTKIqTc3EUHSfQhS92bG9pEKkIBVQbZCr4bPylLBAjZbryTKSKp+LkRZLJyTErZ1QtfK07y1g164KqUBelSdd1Z7hn/qpn2o9orhA6CfSSBWSIJVen+c973nbKIykFmZAq0CqGN/ll1++DalSAfUb92Ztu04FZKsQiEIhjkfcN8/ZSEkDXA8XqCjUzvIItZzt++Cf9MvXKpDK8En0xEMl9CNsRi8wWwBbdkJPjVSBff3zPjiQi+PuGIat3rBVI1WMDOzLP3G9KT2QhUJyLb2p4SJ9knnWRop0So+tWempLCBDBrWc7a8aqQy1yK/yE2mEA+S0005rXInO6I890NM2pEovhjWlc4M6/00IePLJJ49utNkxC6nkPcZm3z2IqTqGHRhcKqJlF+XJaE488cSxZbrqpFLZmPOY0F2ew4tzzjmn8SW2YZsQug3++pEeLCGAdoRwj3G4IUVGeXqNgijdlusTOmwmpU4jFXHM6yCQWggoMCGh/DouxnZNlI5grrdvJoJZzZYG05v0hCc8oS2ss0ix/BixIKqZ1p6f9Bm4tU36jjrqqJaXGEgIFiPxm7ztbW/bxsBsI5uVVDqcMmgLaVMq03RSsP+UK9GD60NwsR96yj1c10hFmZl6xFj0ZOndiJeqaxio3fQQugYBUxDg5imIzYBFkio623333duAesU4r7CjUdMIxlQsZKJdoI2w6qSSH+XWHyLKcIL3xGobCrE4GWWqUjTWF31Vu3ev0ev0dRKk/nlT3infDd08pCKU64YUWJXoho7XRC4zFkmq6MvUJxMvXZPriPstUqBWeubmJX9pH6wyqeRNnpJHoLcMhJt2JV+J0uQ3fNApVadxua7qbkQqBRBDsTXlPQqMhLnmw+Xcmqhg3LFlRIxvEaRSGMRAsJn/9BvYj6EuSkC6Utgf//jHW5SRMhxI9X9TsZJXW+XimP9ZNUy+6IvId/R1xhlntGvAdfTmutxvRCpGEyODa665pk31j5GQuD8zAvIKNdSEQQxu2bFIUkXuda97tfhbj1qM1LUphEUJKA+xvigEsRlG8rjqpEoeoytlkjI1S8biPfLK3vUvJL+OmWYW1LLMPdurHxDFBQrCaju5kTaCrsUQi3vMtamFk6gUzrJjkaTK4ihex/cyGwN1j6rjRUO5eK5nvv/97x8Raeio+BKZbFOe8qiMDHLX5k7aoPb1NQSuic5so7e2mlL+Efjt5rpa3cgNEzqku9h3gI0oQzo5XONBtpsBSeciPZXFckwDCtwn4xuLFIPT6dEFnsp7T0nXqpMq5afs5DN2azEXa7EkXyFX8mumPji35jUhPTRSxbjAbyQxc8LUdqvJ8FBuWA3Gq+fpAUk3pIR50GZRbPK9KFLZ11Hx8pe/vBmd6UDnn39+KxhjgYsUA5c+UEYsg2DWhDJL+ladVDWd8eYqO5OiRRmZQWScquZTaIhAKq04ExBmR2+jNlUfTqLkrCWuALL4B69FfHqlhn7OzwyDFASDizEuG+YhlQKQd8cUkIHCVD6E0S6zSKOow753huQvZRkybWVSgTwhRypIJLGQbB1yYOfy55jxP3qq41rjMJFUAUWmPeUhQkAukVKx2avoDIu3ysPS919JFYNcJsxDKogR+t+P//iPN4NLF+xmEJUkY7EOAyBRdAJbnVQJj70/piyFyMovXefsmw3Yx4Frr722na9CnYaJpKJQxkPSYVElyj3ooIPaQyp7JXark0oNF1LJ52GHHdbWw9t1113btelSX1aRxqw6awL1ODJsdVIFWUrCGvHyIo+R5G/fffdt59LDephIqro6ztlnn90MLK6Q+J3FFSk7oFTXpCC2KqkqTHU5+uij2zUMthbGsool2NS+whyECIEYWBa3WQVSpbmirSsfWeY6q/KKyti5vMfRrEesqZ4KhHI6LfKOFUNLt3oac94kNcIcb6UW3+qkUnGoeBJC6OHLXDEeIG2XZRV5k1Y9gj63qpzrqwywlUkVm2SzVsu6613vOvLg2RJ64qV8qjaOJttJWLdNBYzozW9+c1NoQoaMzIfRZmmnN2QVPFW/scoAzUKxZDajrfdZVvEBP5/hDGqDHbY6qUCleMghh7Q8GL+Tv+SRjSPY29/+9lEExg5iN5MwlVQxHG0mXYn677OgYsIcHRhEd+0ll1wyKpCtTioSqLlikBaEMYNCo3aZ5YYbbhgNhSgzX420fDOETFuZVCCthh5EXom6DCHZKntvuuuAoh/lr4zX66SAqaSiyCiJ4VgkxLhLuo7TS0LBEubVhqzUs9VJBXqN5NHvhAR+q9GWHckL4mTZuUQYwVYnlbA3i6gSjiIin6IO32NDJB4t+pir9y9GZ5/XovxTTjmlJYDB2SJWyKWddcABB7Rp80kA2K+kGke6jcC8pNrqSBluRlJlFrmyqov08DZs2etN++233zadb1lLP00akZfKkt0r++3N21RSUSTYqsXcWNhgpVJsjsvUi2QbchkIlQAZqIboGLGfgvL/yK2NgVTTsZlJJb2m0aU5UstPj5+PTkh3ekA1a9h0nMWBBx44Wv8weoi9rFf+E0klUYH9xN8eYHJmGB4lIxRP5bf9ww8/fOQmJS7IS2ApqBAqGb41MZBqOjYzqVTo0gzSFHIJ5wx/xBuRECnNGsMNJkEHuU/sJXqZhKltqoARYXc6LiTwpJNOav33SVy2+aK5BD73uc/dZoH7JArZUlADqZYXm5lUtd2TYQ+vKz3rWc9qadezl/Xga16EgL5F5nrlzZnQw/Z2UsBEUjEcNwoQyk2FgWH9kUce2cjEfXKdmcHuN6+FWGoFCXMvcW4MciDV8mMzkwqUWdKjUjdzJENBST/HIE9sl70ee+yx7Xz2mrE792H76YxaDxNJhUQSRJkVHuY4w/rEJz7RmC9xDDDd7faRjNcSs/o+qjXF3WvShNuBVMuHzUwq6U05edtCBxrPpLKvaa/eykfUdWrELuUlZY5UaQKth4mkchOG5AHjkAX6jTT7hpPEhUwSKfFJuH3f07XcFyzLjIuBVNOxmUklojIT6Kqrrtrm/agsZiSayoukJhZbzIUtgzG7PjiZlPt6tjqRVFWhFOWmjvkNSJfxDWNTvoHKterAsI2blfiEhXvssUf3lre8pV2TghpItbzY7OGfN3h32223lj5RVHqn08kmklLhmzCOSPLIpuWhljeCsvfAedMwkVTV2McJMC5eh/I/+MEPjr60p6s9DUGFkDaXgpAxIaM3LCVW4muCU5CO+z9xzLM8V4bsC0P7mfN/xyv5p2EeUvkdcqlwcq+LL764vRAoj8ssOpGuu+66lmZhTRrz9JYyyNYxcktIFd1Ayo2k+eDe9qPTIOekvAP7/XMD52vvsEUiinrKU54yGupBqBo5sc+k3xQlc/9yj5TjPJiLVLaUE7EMlqXNKD6ZkAENwHgxx+w75isSMlFJRSnpCAkompIjFOB5MWz/r2nzm6GQWnPmWUiQ3zALqYhCSFqk2diG69xH/pZZEkn4/GZmpYOQKZAvoE9yS0hFL1Vn4Bj9k3FlRqeuyXNzPDqulaxj/udedXDXSkfSlvyp2NMkqW/xquh1XGjrS7NKJfbg3vNgLlLJUDVaMFvbumghFcNMRoipH7apRfbcc8/uwgsvbAbK2CkNZCzGS/yWadtxmU6hRMB57ud/JIURRImzkAr5A2l/4xvfOLqujoEsqzCqVHJmF6QDCTIMMg+pIPpP+aUJAbWs3LuPXEPsR/eQ/XhX/7dsgM8CSUvGTDOPj0h3JZslBHS0QdLovknfPJiLVOLP9IjIYBJnPMCa67yU9pSaQiGGaNyxTO68886jTKvlhU7CyLxGUg15GjwzhOsXgAKTLp4EEaQ3nnAeUuVa+/L+nOc8p5EpMbx7LbNIo3eHNNaFq6mpicoS5iGV85WH+9FRH3Tp+LRzpsGEAqTw9oTeZRWENNV2UyIiv83Izxiq9wNTKbKH9A1IU+x5HsxMqngVW4WgAPI/ipJQ4V16WCJ6Xxhr7YWJW3bcWuOveMUr2ney1J7uF7hvnscIkIOkBqwFI22TkHuGGPN0VGTf2gauiZdifMssNZ8nnHBCywMd0mUwD6noP/pSbu5Fh+7Pswf0l+emPJWt+5CUEfitwrbuni/TiHKkgw3Ruwrcvkpc2UkXcuVlWh8zvP7667cJdyEVQPJ5Swnex8ykimIkomacUvymGMZ/0UUXte50mcqYgBqEAvJuFqGUFBgimg3vxUij21ZXTQF7NgXYTkLOkQ7XKWDit+MEku55SAXuZ8ZzxukSVi2zyKuamwFq2Ee/kHzmWIztlpDKPVxDN+5D6DCyXvnVc5Sd9fvPPPPMVuma9ZB2Ejuq4TZSqbDT4xzPZb0+UVAN22vFa7/qYB7MTKoYZkWMF3yEGCgZ0XRvWq1VpmWyrwgGLFysjckqDNarJWJh8TMl60E0Uo7g3La2gIa2Y7aMpd/wrjWxgoNZSCX/8mab8EEejXf4EIC24zKLcGivvfZq67zLQ/KnMgzmIRUo94SS7m0cSJnZpoyUmbJTho75v7IVor3gBS9o3d08TbwPW9GMQBppcYxIg/8lDIx9CceVS8ouZQa1KeD/lWTzYGZSxSCBocawwP9BQTDA1OzWVEOK6qEoiOdKzUNR6cTwP+fWmp8y4xEIr8ZAEE5t9PjHP75t8/v4448fNUgVYO0pmodU8lwNyL7/Mwhf2LjiiiuWWrxtIAySZgYdQ6sVz7yk4hVCKmSxOKuJAiKXflkpw9pUUMZpD5EQKb+rTdS0OE+5sRu9eynvkAmJ5Jm9yp/jKhJl6rj0Vm82CyaSal7UGi9gmJTrzVOvj5gNTBFIlTYWqWEi70WB9pEtiqVIEjKQFHjEb+f7npCl1CCFDGomivTBhXHXTyOV/WWW9RCiTDt/HlIx4FxvVgOvyOBzfspsnN4jyi7ln8o3kU4VTYUcZzvG4bxJUdf7B2lK5bFILIxUlMv4ZCL7wDi5fTWI186f/exnj2oooV8lF4Uz7PzOsXi2EEqhEPuOUzD3XwvAKq0Mo4Z/A6mmz2iZ11O5nq50hMSDKBPC+FWSjuee/o9IjmsLVU9FUr45n63kHD3JoiAE1nssxBTeJV+xQ+W4aCyMVDKjIGSE1+pnRib17sk8LyJ+Tlinq5fyCKWpqSg7hKmun1C2wnEOwtX/Z9/CNNKAzPGiA6kWR6o0CYRbKk7nIAGdZp8XUr5V7+6rjJ0XEjon1+WcdI+7hzchhNyeh1A1T0R5KT/5IYsm1sJIVTGuwGp4yHP5jWgm3Xpz2Oc06zgWoXzEqqShbIRKTZjjvJ7zHEc0taUCr22hgVSLI5Wt6+nbOJiyED2Q9Mj1xb3dlygzZCLKPOewCUuR+0CGZoSyQNw6vpR0g3RXKMdxTZMdiYV6qj5kiJITgsmcmiWEUhD2Kcl8rMsuu6wt7m/qk0atdfUom3IZfIhA/FYACkwjtRLEd4ozQx48C7YyqdaTRZMqvWpw5ZVXdg972MNG50bXtnScsuyXAQL6aopudDbw0pe+tLv00kvblz5B+fFOIZRn1+dKszwor4pKukVgYaSScJmOAcsYMjnWh//V8xUwI84xvVNeg7766qvbF9J9PYOChYyWkEIaC3oqAFNVDPIpRMv4WpZanE3xeTZlg9+etRVJFSKsJ/WaPmJ8OXdWUilTbyd4p8nClDyN4RXd3b40qRPD8UMPPbSVqd7Y008/vU0e8PFB45SGaNiBSrfaUOxjHKRZOnRO2b+1sDBSMUIZrqSSufzWtkkNokCdH/idwoEoTldnCtq1FGatOl7N1H1TV6J8MzL0/mS8zLPt18IeSLXYjgr76Z6mP1GJMrCGZNo/2tTKyVYzQOVX7+E6lXHSAtIaOwJEc56tc1PGykkZk9jarYGFtqkURIXMJvSrSqmgnP44AaUgRYy5KrjC89zXPVyjIyQFlBDBvZOugVSLI5X7MXIIMYANEMeUVRXHPDPlnTSFKDWN9Xee4x7Saesa96twvvTV9tcicKt0VGwEYgiTBKL0WacpxQuaCRAoULWumniaMIRFioHuacJoA0YsTfLl2uRvXlJNk62MgVRrmIVU9t0nNbB94cxrX/va9gKgbt5pou2wSDHBd5oYYtA2FTpDyJAtDKSaDQOp1jALqRicWj1hhh4ps0Tq4PU0ce9FSsb5JoleUvLMZz6zdQKFQLxYMJBqNmxZUo0ryCowD6kqtNMsEWyWgMFKhjfOkKvU5yxC5GWaSKfzTPF505ve1MLWPgZSzYYtS6rtwTykUqMzND2NeiDNGsgAJ8NbT+pzNkoyPUwoqAcuoWy2A6lmw0CqNcxCKlJ7oLxY6XrX5Nppklkgi5LMRpgk0miKj611HSC9oQgEA6lmw0CqNcxCKr91TICa3ToPlmlj0Ll2mtTnbJQgV38GPw+MXDCQajYMpFrDLKSK8TA8xohY2lUWbvSpy75n6Es6ChYlJhdPEx/8Nn/OO24wroNiINVsGEi1hllIxcjy29b/9QYacNbG8mLkMos08rTahBmM7WMeUq0yBlKtYdY2Va1x472M1k+ai7ZMQKR4WOFeZiPUPA2kmg0DqdYwK6kYWoXfzkubZLNAuuVH2hFpR4R/q4yBVGuYh1S1Zq9wfJmlD8cqsWAg1WwYSLWGWdtU00i1FTCQajYMpFrDLKQCvxmb331y+b3MkgqBTMJAqtkwkGoNs5IKEjIRhrdZUEk1iVwDqWbDQKo1zEsqHROkEktv2jJLhTTLh+OpIGAg1WwYSLWGeUi1lTGQajYMpFrDQKrxGEg1GwZSrWEg1XgMpJoNA6nWMJBqPAZSzYaBVGsYSDUeA6lmw0CqNQykGo+BVLNhINUaBlKNx0Cq2TCQag0DqcZjINVsGEi1ho0gVb7wmM8KBZ4RY7Zfn2U/aahwvM6Mr2v6zYOBVLNhINUaNspTZTFOyL19UjWG6Zjn1hkblVRJP3hBMvCu1I7AQKrZMJBqDRtBqhCKEcbTxNt4MzeryFYS2c86EjF46cp5rveCZO4zLwZSzYaBVGvYKE+V19i9fcvTIEO8jGfZdzzz9ew75n8x+CwjDe61I986Hkg1GwZSrWEjSFUntnoFP2kJrHjr8zPHHntsd9hhhzWx75j/SUNtOyFT7tf/wMOsGEg1GwZSrWEjSGXRlfoFEr+RgifyXS0LXcaAfQM3X+x3zP+e/vSnjz5+FnIhwcc+9rHRYpjzYiDVbBhItYaNIFXIxHB9Vwt85Mxzs8RYDLiKY/5n/573vGd34YUXtnv58kg6KxJCzouBVLNhINUaNqpNxVOlU+HMM89s65rnw9Geb2HOuu66/bpYp+3uu+/evfnNb273gB3lpWAg1WwYSLWGRZDKudMkxs9Y3/Wud3W77LJLM1jfK87z8xEB6Yoxh0wkBPM51nwSRzqTr3kxkGo2DKRaw0aQyj20oXRSPOYxj2nP85FwRBL+8Uo+eBCvRZAoYaHj+cKIY/vtt18jQV1pdl4MpJoNA6nWsBGkYvwM8OKLLx49z6d4bJHntre97ei4L4mQep60IR5yxdDf8Y53jO1JnBUDqWbDQKo1bASpLA8Nj33sYxsx9O4hk2cSz7/f/e7XnXjiid173vOeJr7I7+v7SR9P5hpf73ANbwU7ylsNpJoNA6nWsBGkAu0qz0GKtI/sC/90QPgYW+3J07v3hje8oZFNWrW/eCth4B3veMdm8LA96dseDKSaDQOp1rBRpDKmVJ9HtKsY7oEHHjjqfDAOlZkUn/70p7unPe1po/QhoP1sfcQ7958XA6lmw0CqNWwEqXRSfPjDHx59eI2xxmCJNDFq4lzP1/3OaI877rjReSGTa93rM5/5zChf82Ig1WwYSLWGjSKVWRTaU7yTZ+W5wjmeioHGsAGpeK0DDjhgm673jGXpBdxRk2lhINVsGEi1hkWQaj2kM8FzkEpHRXr8eJ+dd965e/3rX9+exVCRSRvMILHev3S1u46hZ5YF7Ij0wUCq2TCQag0bQSrQ8fDkJz+5Pet2t7td2yKH7nPPfuQjH9m98pWv7K677rqWjpNPPrl9TtR5IaL9eKqDDz54lKcdgYFUs2Eg1Ro2ilTued5557Vn1Qm0JB4IYXiw29zmNqP/ZaZFJF7qmmuuafcd5v5tLAZSrWEjSMVgGareusyoiMeRDvu8UcaiECmzKJI+50ij/Sc96UnN80mjAeAdgYFUs2Eg1Ro2glTulVc2hHfxRDyWUFBPXj89xDGdFNpdxqaQTPvrpptuaveq613Mi4FUs2Eg1Ro2ylMFeuzOOeecNqibZ8drMWIeikgfyUAx2WOPPdqLi6Ajo953Xgykmg0DqdawEaTKa+8IlRnrZ511Vrfnnns2b4U46eGr6eGhyF3ucpfuUY96VPe6172uXSt9ea0eAXYEBlLNhoFUa9gIUnmXKiQA41bI5YXFo48+urvDHe4w8kjSlfSlu/34449vy5sx4pASHNtR3mog1WxYWVLpIWOMPAUDTbiVmeKM2Pb666/fhkTVgBeJm2++ubviiivahFpd5cS+Y/43L1QQ0wTS5gOVgFnwdKIdp9u/hqjCV7pUOeyoNTI2K1baU4Ga/ZRTTmkGoqeNgaS3jcG8973vbeelRw3B4uFuDfAQnkns7yiMI1KVeE55zUD1+eef33RC6qspdPaqV71q9Dq/61cZK08qIZi2jN62vLOEVPFY5557bjNmU4qCL3zhC1/cWxyqgSf8qsfmRb3XOKkESfvvmGOOaZWPELROk6Kv17zmNdt4tlXGSpMqg6TaCne+851HIR/htfx+xjOe0bqpGVnm1eVdqEWCMU/CtP9tL0KeSZKQl6eyz1s98YlPbB68zlW0RbArr7yyXXdrevFlxUqTKrXxhz70odbjxkhqA5z30mVtxVjYkQtVrgcEZqA15LPvWMg9D/ok6gvoqEjYayytdvmnw8J21113Ha24mwHoVcbKkirGqrdKCMhg1LrCm7SnDMgKddJtHeyo3rXtQYjUJ9i86JOoL2nHBSeccMKo4iFCvnRU5I1juLU6cpYZK0uqEAOpNMpPOumkNocuHRWVXI9+9KO7Cy64oJ0HO2oa0DRIX55X4diOIPU4IlVBDlu45JJLugc96EFNH/Rz+9vfvumHqIisVxgg/rh0rxJWllSVGLyAxSiRKTVxJLPHH/GIR7SXCm9tIJC2H9mRHrJPonHCg99www2tUqGDtKNS2RCeXCdO9aI7ao2MzYqVJVV/JjejMF7FUDIGI9xhNDEgxnX55Ze3jopxYQ6vFwIsOxi+3roa4gEy8TSOX3vttd0+++zT8k4fdMFT0Y8ude1Pr6YE8VCr3gu4sqTinYK0WxhRZoyTeK7ahXzf+963O/vss7vPfe5zI/IwRJ5PzZ778irLLEmjCqIO1srTZz/72TZ2p0dUntPbRw8hk+PWfH/f+97XrqshX9XtKmJlSVWhVuZ51LBWMLrTne7U2ldIxYAYFGNiXIzJNKF73/ve3VOf+tTu1FNP7S677LLRi4RmHSCnmQ/LLO9+97u7q6++uu1Lsy7xM844o9t///3bGu15ATLvaoVctshlieqLLrpo1IYi9lUwq46VJpVwLaGKGppBCIuENMapGJA5eF6xiFGlPZH3nOxXQUITYYVJyyyZPVLTLsTLjPgMhPfHpLI11y+6y3w/3em1g2NVsbKkUquSGIZQKOM/pi4dccQRIyMyI7y2rWrvIANkeKSSzP+XWZJO6ZY3+ZBf/7Mv3A3pHDMWZd8xPaV1ln3CSYSK51plrDSpAuGf2jXH4rGsCREvJQwKsTKFiSBWyBepRrvswrP2PRaJp5bX6OBud7tbW8xTpRNoP9Fb9U4DqQaMDAPUuhm7sm9e4AMf+MBtPFV6B9XyanTtj9T0JOM5yyzST6RVhSEPpHpcM0ps5dHy1Gai80Y6NuiMnpCp6g/q/ipipUllTh8vhUAJ/WxrratXz0qyRx55ZJthEWMMwSJIlcHj/v+WWXgq+UmPXhWEQzCLd+oRNBWp6gbB6E4InePCwnrOKmLwVFPAWOogMXK95CUv6R760Ie2UCjd7ASZai1fvcIyijRKqzTnN5EneXv4wx/ePojwyU9+8ou5/z997Ih5h1sdA6mmQI0bL5aQMLjxxhu7t771re2VB4PGL3rRi9obxD52fdRRR7X9ZRZplFb70i4P8iJP8hbQgfCuH+INmIyBVBMQEjEkW7/Ty1UhBEqvFzC+zNReZpFGaQVpTz76kHf5Tv5sc92A8RhINQUMyviVsIdh8Vga6doWjFJo6H8xOGCwIdkyizRKa+BYwl15M5/PfrxUSNef1jTg/2Mg1QQwsmp0k5Caf7PjluRjK+R3cei6/wXYPuR4vERasQAAAABJRU5ErkJggg==;" vertex="1" parent="1">
          <mxGeometry x="35.62" y="497.5" width="146.38" height="145" as="geometry" />
        </mxCell>
        <mxCell id="Ixr0ffq90QcaKTADXFyB-11" value="&lt;font style=&quot;font-size: 16px;&quot;&gt;&amp;nbsp;load-balancer (HAproxy)&lt;/font&gt;" style="text;strokeColor=none;align=center;fillColor=none;html=1;verticalAlign=middle;whiteSpace=wrap;rounded=0;" vertex="1" parent="1">
          <mxGeometry x="182" y="540" width="120" height="60" as="geometry" />
        </mxCell>
        <mxCell id="Ixr0ffq90QcaKTADXFyB-16" value="" style="endArrow=classic;html=1;rounded=0;" edge="1" parent="1">
          <mxGeometry width="50" height="50" relative="1" as="geometry">
            <mxPoint x="208" y="80" as="sourcePoint" />
            <mxPoint x="530" y="80" as="targetPoint" />
          </mxGeometry>
        </mxCell>
        <mxCell id="Ixr0ffq90QcaKTADXFyB-17" value="www.fooobar.com" style="edgeLabel;html=1;align=center;verticalAlign=bottom;resizable=0;points=[];fontSize=19;rotation=0;labelPosition=center;verticalLabelPosition=top;" vertex="1" connectable="0" parent="Ixr0ffq90QcaKTADXFyB-16">
          <mxGeometry relative="1" as="geometry">
            <mxPoint x="20" y="-10" as="offset" />
          </mxGeometry>
        </mxCell>
        <mxCell id="Ixr0ffq90QcaKTADXFyB-18" value="" style="endArrow=classic;html=1;rounded=0;entryX=1;entryY=1;entryDx=0;entryDy=0;" edge="1" parent="1">
          <mxGeometry width="50" height="50" relative="1" as="geometry">
            <mxPoint x="530" y="102" as="sourcePoint" />
            <mxPoint x="210" y="100" as="targetPoint" />
          </mxGeometry>
        </mxCell>
        <mxCell id="Ixr0ffq90QcaKTADXFyB-19" value="8.8.8.8" style="edgeLabel;html=1;align=center;verticalAlign=top;resizable=0;points=[];rotation=1;fontSize=19;labelPosition=center;verticalLabelPosition=bottom;" vertex="1" connectable="0" parent="Ixr0ffq90QcaKTADXFyB-18">
          <mxGeometry x="0.008" y="-8" relative="1" as="geometry">
            <mxPoint x="21" y="9" as="offset" />
          </mxGeometry>
        </mxCell>
        <mxCell id="Ixr0ffq90QcaKTADXFyB-20" value="" style="shape=image;aspect=fixed;image=data:image/png,iVBORw0KGgoAAAANSUhEUgAAAgAAAAIACAYAAAD0eNT6AAAABHNCSVQICAgIfAhkiAAAAAlwSFlzAAAN1wAADdcBQiibeAAAABl0RVh0U29mdHdhcmUAd3d3Lmlua3NjYXBlLm9yZ5vuPBoAACAASURBVHic7N15tF1Vlff970xCgAABQUB6sEITaZJAEgJIU0gnakQey1fhLaFQFJHC4rEBRTGFPCWgoKJ0BYLw8igiSCcoatGFAIEECAiIgkaQQGikCQQIJPP9Y+2E5Obm5t5z9tzr7LN/nzHOUMg5a84w9jhznrXXXsvcHakfM1sf2B4YA2wErFG83rHY/18DGJIrRxGpvfnAi4u9Xljs/z8J3Avc6+6PZ8tQWmZqADqfmb0D2Iu3C/4YYJ2sSYmIvO15imYAuAf4vbs/lzclWR41AB3KzNYCDgA+CrwPWCFvRiIi/TYfuBm4HLjS3WfnTUd6owaggxS/9D9GKvp7oOl7Eam/BcBkUjPwc3d/NnM+UlAD0AHMbD3gi8BngVUzpyMiEuU14MfAd7RuID81ABmZ2WbAV4B/A1bMnI6ISFXeBP4vcLK7P5I7maZSA5CBmY0Avgl8AhicOR0RkVwWAL8EJrn7g7mTaRo1ABUysyHAl4ETgJUypyMi0ineBE4BTnL3N3In0xRqACpiZuOA84BRuXMREelQjwCHu/vk3Ik0waDcCXQ7M1vFzE4H7kDFX0SkL1sCt5jZOWa2eu5kup1mAAKZ2SjgSmCz3LmIiNTMLOCj7n5H7kS6lWYAgpjZRGAKKv4iIq1YH7jJzA7KnUi3UgMQwMy+TPrlv0ruXEREamxF4P+a2YlmZrmT6Ta6BVAiM1sBOAc4LHcuIiJd5jLgUHd/LXci3UINQEnMbDXgWmD33LmIiHSpu4H3u/vzuRPpBmoASmBmKwG/Ju3fLyIice4G3ufuc3InUndaA9CmYnOfn6PiLyJShXHA1Wam7dPbpAagDcWilAuAiblzERFpkH8Gfl78AJMWqQFozw+Af82dhIhIA30Y+LGeDmidGoAWmdnxwL/nzkNEpME+CZyaO4m60iLAFpjZbsBNqIESEekEH3L3X+VOom7UAAyQma0BzAA2zp3LYt4A/gA8AMwG/gG8ULzeypiXiNTbEGANYM3itS6wLbANaZOeTvEssJ27P507kTpRAzBAZvZz4GOZ03gT+D1wBTAV+KO7q9CLSCWKxXdbATsCBwJ7AytkTQpuIO0RoKLWT2oABsDMDgUuzJjCZOAnwJXu/kLGPEREFilmRg8ADiHvI9HHuPv3M8avFTUA/WRmI4B7gVUzhL8O+La7T8kQW0Sk38xsJ+BrwAczhH8D2NHdZ2SIXTtqAPqheMxkMrBLxaEnA/+ui1lE6qY4Dv0MYLeKQ98P7KDbosunVez982mqLf4vA0cCu6v4i0gdFd9dewCfBV6qMPR2wDEVxqstzQAsh5mtA/wReEdFIW8CPunuf68onohIKDNbn7R+ap+KQs4F3uPuf6soXi1pBmD5Tqe64v/fwL4q/iLSTdx9FrA/8MOKQg4DzqwoVm1pBqAPZvY+0uN20eYDX9LqVRHpdmb2OdLagCr28f+ou19RQZxaUgOwDMVJUw8AmweHWgD8v+7+s+A4IiIdwcz+F+kU1cHBoZ4ERuro4N7pFsCyfY344g9plb+Kv4g0RvGr/LMVhNoAOKmCOLWkGYBemNmWpEdJhgaHOsHdvxUcQ0SkI5nZl4k/zGcBaW+AacFxakcNQC/M7Cbid7P6ubt/PDiGiEhHM7OfkHYQjHQPMN7d5wfHqRXdAujBzKrYyvJx4IjgGCIidfDvwGPBMbYHjgqOUTuaAViMma1Feub/nYFhFgB7uPvkwBgiIrVhZjsCtxH7ZMAc0oLAJwNj1IpmAJZ0KrHFH+A7Kv4iIm9z96nA/wkOsxrp8UMpaAagYGa7ATcDFhjmL8A27v5aYAwRkdoxs6GkxddbBoea6O7XBseoBTUALLrw7gNGBofaz91vCI4hIlJLZrYHaTv0SI+Ttgl+NThOx9MtgOTLxBf/n6v4i4gsm7vfDFwUHGZjYFJwjFpo/AyAmf0T8AdgpcAwLwFbufvTgTFERGrPzN5JWoy9VmCYt0hHBt8fGKPjaQYAziK2+AN8VcVfRGT53P050qxspCHAuWbW6BrY6L+8mX2C+OMppwLnBscQEekmPwFuDY4xgWq2I+5Yjb0FYGZrkKaZ1g0M8xYw1t1nBMYQEek6ZjaStDg7ckv2Rt+ebfIMwLeJLf4A31fxFxEZOHd/mPhzAlYHvhcco2M1cgbAzCYAtxP7zL8eNRERaYOZrUQ6ln1EcKh93f23wTE6TuNmAMxsCOmefGTxBzhKxV9EpHXu/jpwZAWhziqajUZpXAMAHANsFxzjl9ppSkSkfe7+O+CnwWH+CfhGcIyO06hbAGa2CfAgsEpgGB04ISJSIjNbl7Roe43AMG8Co939ocAYHaVpMwA/Irb4A3xDxV9EpDzuPhs4LjjMCsA5ZhZ9e7hjNGYGwMwOBK4IDjMd2NHd5wfHERFplKIwTwF2Cg71KXe/IDhGR2hEA2BmqwEPAxsEhlkAjHf36YExREQay8y2Be4h7eQX5R/AlsWOhF2tKbcATiK2+AP8SMVfRCSOuz8AnB4cZk3gtOAYHaHrZwDMbAfSdryDA8M8SVr4NycwhohI45nZMNJi7k2DQ+3p7tFHE2fV1TMAZjaY9Mx/ZPEH+IKKv4hIPHefCxxVQaizzSxyG+LsuroBAD4P7BAc41fuHr24UERECu5+HXB5cJgtiX/yIKuuvQVgZhuQFv6tFhhmLmm7378FxhARkR7MbH3Sd/zwwDBvANu6+58DY2TTzTMAZxBb/AEmqfiLiFTP3WcBXw8OsyJwdnCMbLpyBsDMPghEb8V7P7CDu78VHEdERHphZoNIi7zHBof6V3e/JDhG5bquAShWiD4EbBIYxoGd3f3OwBgiIrIcZrY9cBexi72fAbZy9xcCY1SuG28BTCK2+AOcq+IvIpKfu98D/DA4zDrAKcExKtdVMwBmth1pO97IXaKeJj3z/2JgDBER6SczW5W0IHDDwDAO7OruUwJjVKprZgCKfaLPJbb4Axyj4i8i0jnc/RXg34PDGOmwoBWC41SmaxoA4LPAhOAYv3X3S4NjiIjIALn7VcA1wWG2Ab4YHKMyXXELoKKzol8HtnH3xwJjiIhIi8xsY9Ii8Mhj318Dtnb3vwbGqES3zAB8j9jiD/AtFX8Rkc7l7o8DJwSHWRk4MzhGJWo/A2Bm+wA3BId5CBjt7m8GxxERkTYUZ8BMA0YHh/qYu/8iOEaoWjcAZrYS8AfgnwLDOLC7u08OjCEiIiUxs/HAHcTOcj9F2hvg5cAYoep+C+DrxBZ/gAtV/EVE6sPd7wLOCQ6zHvBfwTFC1XYGwMxGAvcBkcc1Pkvq8P4RGENEREpmZquT9gZYLzDMAmCCu98dGCNMLWcAimf+zyG2+AN8ScVfRKR+3P0l4D+CwwwCzi3WHdROLRsA4FBgt+AYN7n7xcExREQkiLtfBvwmOMwY4OjgGCFqdwvAzN5JeuZ/rcAwbwCj3P2RwBgiIhLMzDYDHiQ9vhflFeA97v5EYIzS1XEG4LvEFn+Ak1X8RUTqr9iw58TgMKsSfyBR6Wo1A2BmewA3BYf5E7Cdu78RHEdERCpQ7N9/L7B1cKgD3P3q4BilqU0DYGZDgRnAVsGh3ufuNwbHEBGRCpnZLsBk0qE+UZ4g3Qp4JTBGaep0C+BY4ov//6fiLyLSfYpjfM8PDrMR8J/BMUpTixkAM9scuB9YKTDMP0jP/D8bGENERDIxs3eQFpGvExhmPjDW3e8LjFGKuswAnEVs8Qc4VsVfRKR7ufsLxB/nO5i0N0DH19eOT9DMDgb2Cg5zG/Dj4BgiIpKZu18C/E9wmPHA54JjtK2jbwFUNF3zJjDG3R8MjCEiIh2iuK38ALBiYJiXSbeVnwqM0ZZOnwE4mdjiD/BdFX8RkeZw9z8Tf5DPcOD7wTHa0rEzAGa2M2lqPvKRjb8A27j7a4ExRESkwxSPlt8PbBkcan93/3VwjJZ05AyAmQ0BziW2+AN8XsVfRKR53H0ecEQFoc40s8htiFvWkQ0AaZXmNsExfu7u0YdEiIhIh3L3m4GLgsNsBpwQHKMlHXcLwMw2JR3cMCwwzEukxRlPB8YQEZEOV9EBcx252LwTZwDOJLb4A3xNxV9ERNz9OeArwWFWIO0NEH1be0A6agbAzP4FuCw4zFRgZ3dfEBxHRERqoCjMNwO7BYf6jLufFxyj3zqmATCz4cDDwPqBYd4ibdE4IzCGiIjUjJmNBO4DhgaGeYF0+/mZwBj91km3AP4PscUf4Acq/iIi0pO7Pwx8JzjMO4DTgmP0W0fMAJjZOOBOYhuSx0nHNL4aGENERGrKzFYC/gD8U3Covdw9ejvi5co+A2Bmg0nP/EfncpSKv4iILIu7vw4cWUGos80schvifsneAABHA2OCY1zp7tcGxxARkZpz998CPwsOsznwteAYy5X1FoCZbUha+LdqYJg5pKn/vwfGEBGRLmFm65L2BlgjMMwbwCh3fyQwRp9yzwD8kNjiD/ANFX8REekvd58NHBccZkXg7OAYfco2A2BmE4Grg8PcA4x39/nBcUREpIsUewNMAXYKDnWIu18cHKNXWRoAM1sFeAjYODDMAmBHd58WGENERLqUmW1L+iE5JDDMs6S9Af4RGKNXuW4BnEhs8Qc4U8VfRERa5e4PAN8LDrM28fsP9KryGQAzGw1MAwYHhnkSGOnucwJjiIhIlzOzYaQZ600Cwziwu7tPDoyxlEpnAMxsEOmZ/8jiD/AFFX8REWmXu88FPh8cxoBzzGyF4DhLqPoWwBHA+OAY17n7FcExRESkIdz9OiC6rrwH+HJwjCVUdgvAzNYjPfO/emCYuaRn/v8WGENERBrGzNYn7Q2wWmCY14Bt3P0vgTEWqXIG4HvEFn+ASSr+IiJSNnefBRwfHGZl4KzgGItUMgNgZvsBvw4Ocz+wg7u/FRxHREQaqFjHNhUYGxzqE+5+aXCM+AbAzFYmna707sAwDuzs7ncGxhARkYYzs+2Bu4hdzP40aW+AlwJjVHIL4BvEFn+Ac1X8RUQkmrvfQ9rGPtK7gG8Hx4idATCzrYF7gchHG2YDWwFvAhsUr7XJf86BiIh0hwWkHfueBGYV/+5hYMPgmDu7+9SoAGENQLGP8q3Ae0MCvO0V0n+o4cFxREREAF4mPbsf+UQAwAxgbNTatshfyZ8ivvhDOk1QxV9ERKoynPjiDzAK+I+owUNmAMxsbdLzkmuWPriIiEhzvEra3+bxsgeOmgE4DRV/ERGRdq0C/Chi4NJnAMxsT+B/Sh1URESk2Q509yvLHLDUBsDMViRtyLNFaYOKiIjI30m3Ako76K7sWwBfRcVfRESkbBsC3ypzwNJmAMxsC9Kv/xVLGVBEREQWNx8YX2xG1LYyZwDORsVfREQkymDg3OJMgraVMoiZ/SuwZxljiYiIyDKNBT5fxkBt3wIwszVJz/yvXUZCIiIi0qc5pMOCZi33nX0oYwbgVFT8RUREqrIacEa7g7Q1A2Bm7yXt92/tJiIiIiID8kF3v67VD7fcAJjZCqST/rZuNbiIiIi0bCawtbvPbeXD7dwC+BIq/iIiIrlsCnyz1Q+3NANgZu8G/gCs3GpgERERadtbwPbu/sBAP9jqDMCZqPiLiIjkNoS0N8CA1+INuAEws/8H2G+gnxMREZEQOwGfGeiHBnQLwMxWJz3z/66BBhIREZEwL5L2Bpjd3w8MdAbgv1DxFxER6TRrAKcP5AP9ngEwsx2B2yn/BEEREREpxz7u/rv+vLFfDYCZDQGmAaPaTKws84HbgBnAU728nveyjjkUEZFGKxbYrQWs18trFPBe0kE9neBRYFt3f315b+xvA/BF4LslJNaOucBvgauAX7n785nzERERwczWAj4EHADsQ/6n5E5y928s703LbQDMbGPgIWCVkhIbqOuBc4HfuftrmXIQERFZLjMbRmoCPlf8bw7zgFHu/se+3tSfBuBC4NDy8uq36cCX3f2mDLFFRETaYmZ7kQ7MG5Mh/C/d/X/19YY+GwAzG0H69b9CyYn1ZSZwPPAz3ccXEZE6K9YPHAycBGxSYei3gJHu/uiy3rC8Ff3/RXXFfz7wddJzjD9V8RcRkbrz5BJgS1KNm19R6CGkpmOZljkDYGbjgakBSfXmReDj7n5DRfFEREQqZ2b7ApeSntuP5sBYd7+ntz/sawbglJh8lvIIsKOKv4iIdLui1u1Iqn3RDPj2sv6w1wbAzPYH9ghKaHE3ABPc/U8VxBIREcmuqHkTSDUw2j5mtmdvf7DULQAzGwTcB2wbnNTFwGHuXtX9EBERkY5hZoOBC4BPBoe6293H9/yXvc0ATCS++E8BDlfxFxGRpipq4OGkmhhpnJlN7Pkve2sADgtO5HHgQHefFxxHRESkoxW18EBSbYz06Z7/YolbAGb2LuAJ0uMDEeYCu7j7fUHji4iI1I6ZjSbNBAwLCvEWsIG7P7PwX/ScAfhX4oq/A4eo+IuIiCypqI2HkGplhCGkDYkW6dkA/FtQYIAfu/vlgeOLiIjUVlEjfxwY4tDF/2HRLQAz2xG4MyjoXGCEuz8VNL6IiEjtmdl6pCN9o24FjFk4E7/4DEDk4r/TVPxFRET6VtTK0wJDHLrw/yw+A/A0sG5AsNmkX/+vBIwtIiLSVcxsVdIsQERNftLdN4RiBsDM3h0UCGCSir+IiEj/FDVzUtDwG5jZxvD2LYCdggL9FTg/aGwREZFudT6phkbYCeIbgMvd/a2gsUVERLpSUTt/GTT8BHj7mf+oBuDqoHHDmNlwYANg/R6vdYGXgFm9vJ7xZZ2rLFJTZrYasD0wFhgDrJo3I5F+eQW4F5gG3OPuczLn046rgS8GjLsTpKMCh5EKW9kbAD0DrOfuC0oet3Rmth1wQPEa08IQTwHXAFcBN2qbY6kzM9sWOIf0K6GvI8NFOt0C0uPtR7j7A7mTGajisKDZwFolDz0PGG7A7sDNJQ8OaeOfpfYe7hRmtivwEVLR36zEoecAvyY1A9e4+6slji0SxsyGAMcCJwBDM6cjUqZ5wInAKXW7LW1mFxFzWuDOg2jtF29/XBU0blvMbGczuw24FTiGcos/wGrAx4CfAo+Z2RHFF6tIxyoeO7odOAkVf+k+Q0nX9u3FtV4n1wSNu8MgYO2AgecBvw8Yt2VmNtLMriQdtrBLRWHXBc4GHjSzAyuKKdKKU4FxuZMQCTaOdK3XyQ2kWxllW3cQ5d9bAHjK3V8PGHfAzGwdMzsPeIA03Z/DFsAVZna7mU3IlINIr8xsT+CI3HmIVOSI4pqvhWJPgGeW+8aBWyusAQgYc8DMbAwwnXQO8uDM6UBaeTnZzI7MnYgIgJmtAlxAWhAs0gQGXFBc+3UxK2DM7m0Aiin324ANc+fSwxDgTDM7S2sDpAPsDmySOwmRim1CuvbrIqIBeOcgYM2AgZ8OGLPfzOx44HLiTlMqw+eAG8ws4r+/SH+NzZ2ASCZ1uvY1A7A8ZjbEzC4hrfasw5TmnsBUM9s8dyLSWHX6EhQpU52ufTUA/XAGcHCm2K0aAVyvmQDJpE5fgiJlqtO1H9YArBwwcOWn/5nZUaRp9ToaAfxCawJERKQXEdsZr9wV23ya2d7A93Pn0aY9gR/kTkIaZ1ruBEQyafy1X/sGwMy2BC6jMx7za9eRZlbXWQypp8Z/CUpjNf7ar3UDYGYrkrZJXCN3LiU6w8zG505CGqPxX4LSWI2/9mvdAACfJ+2y102GAKfnTkIa4xZgZu4kRCo2k3TtN1ptGwAzWx04PnceQXYxs1zbFkuDFKdVHgZ47lxEKuLAYTqptcYNAHAcMZsYdYpv66kAqYK73wT8KHceIhX5UXHNN14tGwAz2wD4Qu48gm0FfCp3EtIYx5FOyhTpZlNI17pQ0wYAmETM/gWdZlLNDqyQmnL3ucBuwJeAjjjJU6REbwBfAXYrrnWhhg1AURDrtttfq94FTMydhDSDuy9w99OA0cCNwJuZUxJp11ukxX7bu/t33H1B7oQ6SR3vMe9L9b/+nwTuBzYCRlLtngMTgZ9VGE8azt0fAd5XPGY7mrRl6hhg1ayJifTPK8C9pMf8Zri7ZrSWoY4NQBWr4+cDZwG/A+5290WnG5rZMNKX4XjSdOn6wbm838xWcHf9GpNKufsbwNTiJSJdpla3AIpV8R8IDvMgMMHdj3b3axcv/pDulbr7FHf/HrA1cHFwPqsDewTHEBGRhqlVA0BapBT56N+pwA7u3q8dotz9RXc/hDRN/1xgXloHICIipapbA/DhwLEvcfdji2nPAXH3a4FDy09pETUAIiJSqro1AKOCxp0FHN3OAO5+HXBhOeksZWMz66bzDkREJLO6NQBRC+4Od/cXShjnGOCJEsbpTfRiQxERaRA1AHCnu19fxkDu/hJwWhlj9UINgIiIlKY2DYCZDQcidsW7u8PHW0gNgIiIlKY2DQBxBbDsM6HvJe0jUDY1ACIiUho1ACU3AO7+GvBQmWMW1ACIiEhp6tQADA8a9+81GTPq7y8iIg1UpwZgdtC4EY8WRoz5TMCYIiLSUHVqAJ4MGndsmYOZ2XrETNc/FTCmiIg0VJ0agKcBDxi31AYgYLyF1ACIiEhpatMAuPs8Yvbb37U49rQse5c41uLUAIiISGlq0wAUZgWMuRHwn2UMZGZjgSPLGKsXTy//LSIiIv1TtwYgYnU9wJfMbMd2BihmEX4CDC4lo6VFND8iItJQdWsAbg4adzDwEzNbuY0xTgS2Limfnqa7+5ygsUVEpIHq1gBcFTj2VsA9A50JMLM1zewS4CsxaQGxf28REWmgWjUA7v4oMbvsLbQVMMXMTu7PwkAzmwg8CBwcmBPA1cHji4hIwwzJnUALrgLeEzj+YOBY4CAzm0w63GcacD9pweDY4jW+eEX7i7s/UEEcERFpkLo2AF+rIM5GwEHFKydN/0vlzOzdwG7ADsD2wGhgWNakRPpnLnAfcA8wHbjV3f+SN6XOVMcGYBrpaYANcydSkStzJyDNYWZDgOOAE4AVMqcj0ophwM7FC+BNMzsRONnd38qXVuep1RoAAHd34JTceVRksrvfljsJaQYzGwncDnwLFX/pHiuQrunbi2tcCrVrAArnAo/mTqICX86dgDRD8cU4HRiXOxeRIOOA6WoC3lbLBsDd36SadQA5XebuU3MnId3PzAYDFwHt7IMhUgcrAxcV13zj1bIBAHD3XwB35c4jSBMaHOkcx6Jf/tIc40jXfOPVtgEoRG6+k9NZ7v5Y7iSk+5nZJsA3c+chUrFvFtd+o9W6AXD3W4Af586jZI8Bk3InIY3xXmBo7iREKjaUdO03Wq0bgMKRQLeslH8Z+JC7v5g7EWmMsbkTEMmk8dd+7RsAd58HHAjMzJxKuxYAB7n7w7kTkUZp/JegNFbjr/2oBsCCxu2Vuz8LTAReqTJuyb7q7tflTkIaZ7vcCYhkUqdrP6SmDgIijpldK2DMPhX75R9M+iVdN5e4+6m5k5BGeiJ3AiKZ1Onaj6ipcwYBEfeb1wsYc7nc/RrgI9RrJuBM4N9yJyGNNS13AiKZ1Onaj6ipL3ZVAwCLmoCd6fw1AW8CR7j7UdqfWjKq05egSJnqdO2rAeiv4nbAeGByzjz68Bywl7ufmzsRabxu3UxLZHnqdO2rARiIYmHgXsB5uXPpYQYwzt1vzZ2IiLvfBVydOw+Ril1dXPt1oQZgoNx9nrt/BtgVuDNzOrOBzwFj3X1m5lxEFvdZ4PncSYhU5HnSNV8nYQ1AxErItc1s/YBxW+Lut7n7TsBHgT9XHH4u6SjKEe5+ju73S6dx99mkDbVEmuDI4pqvhaKWrh0w9BODSFPSZTPSc/kdxd2vALYGjgL+HhzuNdLthxHufoK71+nJBGkYd78M+ALpuhXpRq8B/1Fc63UykZh9AGYYsAXwSMDgN7j7fgHjlsLMDNgB+HDx2raEYZ8BfgVcA/zO3eeWMKZIZcxsc+BCYJfcuYiU6E7gUHePqHWhzOw3wL4BQ29ppM2AXgZWKXnwecDa7v5yyeOGMLPNSJ3W7sAGwPrAu4AhvbzdSfeRZhWv+0hFf6q713EjIpFFzGwQ8Clgb9LRqZtmTUikNTNJj/r9D3Ceu8/Pm87Amdlw4FnKP7DrVWC4uTtmdgcwoeQAAJ9w90sDxq1E8UW4NqkZWBd4iVTwnyrOIBDpema2FjAGWDV3LiL98Apwn7s/lzuRdpnZx4GfBQx9p7vvtPDX7QxiGoADgNo2AMWv+dnFS6SR3P154Pe58xBpoAOCxp0Bbx8GNDUoyMROehpARESkDoraGbWYfiq83QBcR8whOisDJwaMKyIi0s1OJNXQsi0g1XzM3QEws9uIWfk7Hxjl7g8GjC0iItJVzGxr0jT94IDhp7j7e+HtGQCI2w50MHBK0NgiIiLd5hRiij8sVusXnwHYHPhTUECAPdz9lsDxRUREas3MdgduDgyxhbv/GRZrAIrADwEjg4LeA+ykx+dERESWZmZDgTuA7YNCPOzu71n4D4N6/GHE84YLbQ+cGTi+iIhInZ1JXPGHHjW+5wzAO4HHiVl5uNAX3P2MwPFFRERqxcyOBn4QGOI1YOPFN0haYgag+IOLAxMAON3M9gqOISIiUgtFTTw9OMzFPXdHXGIGoEhkS+BhYk4fWugFYLy7PxoYQ0REpKOZ2QjgLuAdgWEcGNnzMKSeawAo3nBtYCKQ/qK/Lv7iIiIijVPUwF8TW/wBru3tJMSlGoDCacHJAIwA7tLtABERaZqi9t1FqoXReq3pvTYA7n4rcH1oOsk7gN8Uix9ERES6XlHzfkP8L3+A64uavnQePdcALPqDNDXxB2DFwMQWdz7wee0TICIi3ah4zv9M4NMVhXwD2GZZ6+2WdQuA4gPfjcqqF58G7jCzPSqMKSIiEq6obXdQXfEH+G5fi+2XOQMAYGbDSE8EbByQWF+uB45z9wcqjisiIlIaM9sWOBnYv+LQj5NW/s9d1huWjvVujwAAIABJREFUOQMAUHzwf5edVT/sD9xnZhea2YYZ4ouIiLTMzDY0swuB+6i++AN8sa/iD8uZAVj0JrNfAB8tK6sBep30mMRVwK/c/R+Z8hAREVkmM1sT+CBwAPB+YKVMqVzu7v+yvDf1twFYDZgGbFFCYu2YD0wmNQNXu/vMvOmIiEiTmdmmwIdJRX9X4o7x7a8/AWPdfc7y3tivBgAW3ce4ExjWXm6legmY1cvrWdLORyIiIu0yYG1g/V5eq2fMq6e5wIT+rp/rdwMAYGafBC5qMTERERGJc4i79/s8nz4XAfZUDHzegFMSERGRSOcNpPjDAGcAYNFGBlcD+w3ogyIiIhLhN8CHB7qR3oAbAAAzW5n0rP4eA/6wiIiIlOVmYH93f22gH2ypAQAws1WB3wI7tTSAiIiItOMOYB93f6WVD7fcAACY2RrAjcCYlgcRERGRgboX2NPdX2x1gAEtAuypCLwP6UhDERERiXcX6Zd/y8Uf2mwAANz9OWB34NJ2xxIREZE+XQrsXtTetrTdAAC4++vu/gngBLQBj4iISNkcOMHdP+Hur5cxYFtrAHod0OyjpM2COmnHQBERkbqaS9rk5/IyBy1lBqCHK0h79YuIiEj7rgJ+WfagpTYAZrYKqQE4qMxxRUREGuwg4JfF4/elKe0WgJltCFyDHgkUERGJcD/wIXd/vIzBSpkBMLNxpMcSVPxFRERibAfcbWY7lzFY2w2Ame0F3AKs1346IiIi0od1gBvNbP92B2p3J8BdSYcQaMW/iIhIdV4HPuDuN7Y6QDtnAYwDfg8MbzW4iIiItOxV0o6At7fy4VZPA9wOuAlYs5WgIiIiUoqXgPe5+/SBfnDADYCZbQ7cRroPISIiInk9D+zq7g8P5EMDagDMbBgwFdhmYLmJiIhIoIeB8QM5GnigTwGcg4q/iIhIpxkJ/PdAPtDvGQAz+wxwbgtJRZhPug0xA3iql9fzXvYhByIi0khmZsBapMfde75GAe8FBmdLcElHuvvZ/XljvxoAM9sBmAKs2GZi7ZgL/Ja0J/Kv3P35jLmIiIgAYGZrAR8CDgD2AVbOmM4bwC79WRS43Aag2N//AWCzcnIbsOtJMw+/c/fXMuUgIiKyXMVauX2AzxX/m8NfgW3d/dW+3tSfNQDfIE/xnw7s6e4fcPdrVPxFRKTTuftcd7/K3fcF9gbuzZDGZqTa3ac+ZwDMbAvSr/+h5eW1XDOB44Gf6T6+iIjUWbF+4GDgJGCTCkPPI80C/GlZb1jeDMAPqa74zwe+Dmzl7j9V8RcRkbrz5BJgS1KNm19R6KGkGr5My5wBMLOPAL8MSKo3LwIfd/cbKoonIiJSOTPbF7gUWKOikAe6+5W95tJbA2BmKwF/pJrpikeAiX1NU4iIiHSL4vb6NaRZgWh/I82sv97zD5Z1C+CTVFP8bwAmqPiLiEhTFDVvAqkGRtuEVNOXstQMQLFg4SFgq+CkLgYOc/eq7oeIiIh0DDMbDFzAMgp0iR4BRvZcW9fbDMAHiC/+U4DDVfxFRKSpihp4OKkmRtqSVNuX0FsD8MXgRB4nLUqYFxxHRESkoxW18EBSbYy0VG1f4hZAseXvtMAE5pK2KLwvMIaIiEitmNlo0kzAsMAwYxffIrjnDMBRgYEdOETFX0REZElFbTyEVCujLFHjF80AFIsRngHWDAp8vrsfHjS2iIhI7ZnZecCng4b/B7DOwvV3izcAewA3BQWdC4xw96eCxhcREak9M1sPeJS4WwH/7O43w5K3AA4ICgZwmoq/iIhI34paeVpgiEW1fvEZgL8CmwYEm0369f9KwNgiIiJdxcxWJc0CrBsw/Ex33wyKGQAzG0VM8QeYpOIvIiLSP0XNnBQ0/KZFzV90C2C/oEB/Bc4PGltERKRbnU+qoRH2g7cbgDFBQS5397eCxhYREelKRe2MOpF3DMCQ4h9GBwW5OmjcMGY2HNgAWL/Ha13gJWBWL69neu6xLFJ3ZrYasD0wlvSFsWrejET65RXgXtKmdve4+5zM+bTjamJ25x0NYKRHDeaw7JMBW/UMsJ67Lyh53NKZ2XaklZEH0NpsyFOkox2vAm7UNsdSZ2a2LXAO6bSysr8XRKq0ALgTOMLdH8idzEAV+/PMBtYqeegFwGoG7Ej6D1S2H7t71GYGbTOzXYGPkIr+ZiUOPQf4NakZuMbdXy1xbJEwZjYEOBY4ARiaOR2RMs0DTgROqdttaTO7iJjTAicMAkYFDAypAHYcM9vZzG4DbgWOodziD7Aa8DHgp8BjZnZE8cUq0rGKx45uB05CxV+6z1DStX17ca3XyTVB444aBGwbMPA84PcB47bMzEaa2ZWkwxZ2qSjsusDZwINmdmBFMUVacSowLncSIsHGka71OrmBNGVftm0HAe8MGPgpd389YNwBM7N1ir2VHyB2t8O+bAFcYWa3m9mETDmI9MrM9gSOyJ2HSEWOKK75Wij2BHgmYOh3DgLWCBi4I7b9NbMxwHTSwQqDM6cDsBMw2cyOzJ2ICICZrQJcQFoQLNIEBlxQXPt1MStgzDW6tgEoptxvAzbMnUsPQ4AzzewsrQ2QDrA7sEnuJEQqtgnp2q+LWjUATweM2W9mdjxwOXGnKZXhc8ANZhZ1/LJIf4zNnYBIJnW69mvVAGSZATCzIWZ2CWm1Zx2mNPcEpprZ5rkTkcaq05egSJnqdO2rAeiHM4CDM8Vu1Qjges0ESCZ1+hIUKVOdrv2wBmClgIErP/3PzI4iTavX0QjgF1oTICIivYjYznilrtjm08z2Br6fO4827Qn8IHcS0jjTcicgkknjr/3aNwBmtiVwGZ3xmF+7jjSzus5iSD01/ktQGqvx136tGwAzW5G0TWLEOoZczjCz8bmTkMZo/JegNFbjr/1aNwDA50m77HWTIcDpuZOQxrgFmJk7CZGKzSRd+41W2wbAzFYHjs+dR5BdzCzXtsXSIMVplYcBnjsXkYo4cJhOaq1xAwAcB3Tzo3Pf1lMBUgV3vwn4Ue48RCryo+Kab7xaNgBmtgHwhdx5BNsK+FTuJKQxjiOdlCnSzaaQrnWhpg0AMAlYOXcSFZhUswMrpKbcfS6wG/AloCNO8hQp0RvAV4DdimtdqGEDUBTEuu3216p3ARNzJyHN4O4L3P00YDRwI/Bm5pRE2vUWabHf9u7+HXdfkDuhTlLHe8z7Uv2v/yeB+4GNgJFUu+fAROBnFcaThnP3R4D3FY/ZjiZtmToGWDVrYiL98wpwL+kxvxnurhmtZahjA1DF6vj5wFnA74C73X3R6YZmNoz0ZTieNF26fnAu7zezFdxdv8akUu7+BjC1eIlIl6nVLYBiVfwHgsM8CExw96Pd/drFiz+ke6XuPsXdvwdsDVwcnM/qwB7BMUREpGFq1QCQFilFPvp3KrCDu/drhyh3f9HdDyFN0z8XmJfWAYiISKnq1gB8OHDsS9z92GLac0Dc/Vrg0PJTWkQNgIiIlKpuDcCooHFnAUe3M4C7XwdcWE46S9nYzLrpvAMREcmsbg1A1IK7w939hRLGOQZ4ooRxehO92FBERBpEDQDc6e7XlzGQu78EnFbGWL1QAyAiIqWpTQNgZsOBiF3x7u7w8RZSAyAiIqWpTQNAXAEs+0zoe0n7CJRNDYCIiJRGDUDJDYC7vwY8VOaYBTUAIiJSmjo1AMODxv17TcaM+vuLiEgD1akBmB00bsSjhRFjPhMwpoiINFSdGoAng8YdW+ZgZrYeMdP1TwWMKSIiDVWnBuBpwAPGLbUBCBhvITUAIiJSmto0AO4+j5j99nctjj0ty94ljrU4NQAiIlKa2jQAhVkBY24E/GcZA5nZWODIMsbqxdPLf4uIiEj/1K0BiFhdD/AlM9uxnQGKWYSfAINLyWhpEc2PiIg0VN0agJuDxh0M/MTMVm5jjBOBrUvKp6fp7j4naGwREWmgujUAVwWOvRVwz0BnAsxsTTO7BPhKTFpA7N9bREQaqFYNgLs/SswuewttBUwxs5P7szDQzCYCDwIHB+YEcHXw+CIi0jBDcifQgquA9wSOPxg4FjjIzCaTDveZBtxPWjA4tniNL17R/uLuD1QQR0REGqSuDcDXKoizEXBQ8cpJ0/9SOTN7N7AbsAOwPTAaGJY1KZH+mQvcB9wDTAdudfe/5E2pM9WxAZhGehpgw9yJVOTK3AlIc5jZEOA44ARghczpiLRiGLBz8QJ408xOBE5297fypdV5arUGAMDdHTgldx4Vmezut+VOQprBzEYCtwPfQsVfuscKpGv69uIal0LtGoDCucCjuZOowJdzJyDNUHwxTgfG5c5FJMg4YLqagLfVsgFw9zepZh1ATpe5+9TcSUj3M7PBwEVAO/tgiNTBysBFxTXfeLVsAADc/RfAXbnzCNKEBkc6x7Hol780xzjSNd94tW0ACpGb7+R0lrs/ljsJ6X5mtgnwzdx5iFTsm8W132i1bgDc/Rbgx7nzKNljwKTcSUhjvBcYmjsJkYoNJV37jVbrBqBwJNAtK+VfBj7k7i/mTkQaY2zuBEQyafy1X/sGwN3nAQcCMzOn0q4FwEHu/nDuRKRRGv8lKI3V+Gs/qgGwoHF75e7PAhOBV6qMW7Kvuvt1uZOQxtkudwIimdTp2g+pqYOAiGNm1woYs0/FfvkHk35J180l7n5q7iSkkZ7InYBIJnW69iNq6pxBQMT95vUCxlwud78G+Aj1mgk4E/i33ElIY03LnYBIJnW69iNq6otd1QDAoiZgZzp/TcCbwBHufpT2p5aM6vQlKFKmOl37agD6q7gdMB6YnDOPPjwH7OXu5+ZORBqvWzfTElmeOl37agAGolgYuBdwXu5cepgBjHP3W3MnIuLudwFX585DpGJXF9d+XagBGCh3n+funwF2Be7MnM5s4HPAWHefmTkXkcV9Fng+dxIiFXmedM3XSVgDELEScm0zWz9g3Ja4+23uvhPwUeDPFYefSzqKcoS7n6P7/dJp3H02aUMtkSY4srjma6GopWsHDP3EINKUdNmM9Fx+R3H3K4CtgaOAvweHe410+2GEu5/g7nV6MkEaxt0vA75Aum5FutFrwH8U13qdTCRmH4AZBmwBPBIw+A3uvl/AuKUwMwN2AD5cvLYtYdhngF8B1wC/c/e5JYwpUhkz2xy4ENgldy4iJboTONTdI2pdKDP7DbBvwNBbGmkzoJeBVUoefB6wtru/XPK4IcxsM1KntTuwAbA+8C5gSC9vd9J9pFnF6z5S0Z/q7nXciEhkETMbBHwK2Jt0dOqmWRMSac1M0qN+/wOc5+7z86YzcGY2HHiW8g/sehUYbu6Omd0BTCg5AMAn3P3SgHErUXwRrk1qBtYFXiIV/KeKMwhEup6ZrQWMAVbNnYtIP7wC3Ofuz+VOpF1m9nHgZwFD3+nuOy38dTuDmAbgAKC2DUDxa3528RJpJHd/Hvh97jxEGuiAoHFnwNuHAU0NCjKxk54GEBERqYOidkYtpp8KbzcA1xFziM7KwIkB44qIiHSzE0k1tGwLSDUfc3cAzOw2Ylb+zgdGufuDAWOLiIh0FTPbmjRNPzhg+Cnu/l54ewYA4rYDHQycEjS2iIhItzmFmOIPi9X6xWcANgf+FBQQYA93vyVwfBERkVozs92BmwNDbOHuf4bFGoAi8EPAyKCg9wA76fE5ERGRpZnZUOAOYPugEA+7+3sW/sOgHn8Y8bzhQtsDZwaOLyIiUmdnElf8oUeN7zkD8E7gcWJWHi70BXc/I3B8ERGRWjGzo4EfBIZ4Ddh48Q2SlpgBKP7g4sAEAE43s72CY4iIiNRCURNPDw5zcc/dEZeYASgS2RJ4mJjThxZ6ARjv7o8GxhAREeloZjYCuAt4R2AYB0b2PAyp5xoAijdcG5gIpL/or4u/uIiISOMUNfDXxBZ/gGt7OwlxqQagcFpwMgAjgLt0O0BERJqmqH13kWphtF5req8NgLvfClwfmk7yDuA3xeIHERGRrlfUvN8Q/8sf4Pqipi+dR881AIv+IE1N/AFYMTCxxZ0PfF77BIiISDcqnvM/E/h0RSHfALZZ1nq7Zd0CoPjAd6Oy6sWngTvMbI8KY4qIiIQratsdVFf8Ab7b12L7Zc4AAJjZMNITARsHJNaX64Hj3P2BiuOKiIiUxsy2BU4G9q849OOklf9zl/WGZc4AABQf/N9lZ9UP+wP3mdmFZrZhhvgiIiItM7MNzexC4D6qL/4AX+yr+MNyZgAWvcnsF8BHy8pqgF4nPSZxFfArd/9HpjxERESWyczWBD4IHAC8H1gpUyqXu/u/LO9N/W0AVgOmAVuUkFg75gOTSc3A1e4+M286IiLSZGa2KfBhUtHflbhjfPvrT8BYd5+zvDf2qwGARfcx7gSGtZdbqV4CZvXyepa085GIiEi7DFgbWL+X1+oZ8+ppLjChv+vn+t0AAJjZJ4GLWkxMRERE4hzi7v0+z6fPRYA9FQOfN+CUREREJNJ5Ayn+MMAZAFi0kcHVwH4D+qCIiIhE+A3w4YFupDfgBgDAzFYmPau/x4A/LCIiImW5Gdjf3V8b6AdbagAAzGxV4LfATi0NICIiIu24A9jH3V9p5cMtNwAAZrYGcCMwpuVBREREZKDuBfZ09xdbHWBAiwB7KgLvQzrSUEREROLdRfrl33LxhzYbAAB3fw7YHbi03bFERESkT5cCuxe1ty1tNwAA7v66u38COAFtwCMiIlI2B05w90+4++tlDNjWGoBeBzT7KGmzoE7aMVBERKSu5pI2+bm8zEFLmQHo4QrSXv0iIiLSvquAX5Y9aKkNgJmtQmoADipzXBERkQY7CPhl8fh9aUq7BWBmGwLXoEcCRUREItwPfMjdHy9jsFJmAMxsHOmxBBV/ERGRGNsBd5vZzmUM1nYDYGZ7AbcA67WfjoiIiPRhHeBGM9u/3YHa3QlwV9IhBFrxLyIiUp3XgQ+4+42tDtDOWQDjgN8Dw1sNLiIiIi17lbQj4O2tfLjV0wC3A24C1mwlqIiIiJTiJeB97j59oB8ccANgZpsDt5HuQ4iIiEhezwO7uvvDA/nQgBoAMxsGTAW2GVhuIiIiEuhhYPxAjgYe6FMA56DiLyIi0mlGAv89kA/0ewbAzD4DnNtCUhHmk25DzACe6uX1vJd9yIGIiDSSmRmwFulx956vUcB7gcHZElzSke5+dn/e2K8GwMx2AKYAK7aZWDvmAr8l7Yn8K3d/PmMuIiIiAJjZWsCHgAOAfYCVM6bzBrBLfxYFLrcBKPb3fwDYrJzcBux60szD79z9tUw5iIiILFexVm4f4HPF/+bwV2Bbd3+1rzf1Zw3AN8hT/KcDe7r7B9z9GhV/ERHpdO4+192vcvd9gb2BezOksRmpdvepzxkAM9uC9Ot/aHl5LddM4HjgZ7qPLyIidVasHzgYOAnYpMLQ80izAH9a1huWNwPwQ6or/vOBrwNbuftPVfxFRKTuPLkE2JJU4+ZXFHooqYYv0zJnAMzsI8AvA5LqzYvAx939horiiYiIVM7M9gUuBdaoKOSB7n5lr7n01gCY2UrAH6lmuuIRYGJf0xQiIiLdori9fg1pViDa30gz66/3/INl3QL4JNUU/xuACSr+IiLSFEXNm0CqgdE2IdX0pSw1A1AsWHgI2Co4qYuBw9y9qvshIiIiHcPMBgMXsIwCXaJHgJE919b1NgPwAeKL/xTgcBV/ERFpqqIGHk6qiZG2JNX2JfTWAHwxOJHHSYsS5gXHERER6WhFLTyQVBsjLVXbl7gFUGz5Oy0wgbmkLQrvC4whIiJSK2Y2mjQTMCwwzNjFtwjuOQNwVGBgBw5R8RcREVlSURsPIdXKKEvU+EUzAMVihGeANYMCn+/uhweNLSIiUntmdh7w6aDh/wGss3D93eINwB7ATUFB5wIj3P2poPFFRERqz8zWAx4l7lbAP7v7zbDkLYADgoIBnKbiLyIi0reiVp4WGGJRrV98BuCvwKYBwWaTfv2/EjC2iIhIVzGzVUmzAOsGDD/T3TeDYgbAzEYRU/wBJqn4i4iI9E9RMycFDb9pUfMX3QLYLyjQX4Hzg8YWERHpVueTamiE/eDtBmBMUJDL3f2toLFFRES6UlE7o07kHQMwpPiH0UFBrg4aN4yZDQc2ANbv8VoXeAmY1cvrmZ57LIvUnZmtBmwPjCV9YayaNyORfnkFuJe0qd097j4ncz7tuJqY3XlHAxjpUYM5LPtkwFY9A6zn7gtKHrd0ZrYdaWXkAbQ2G/IU6WjHq4Abtc2x1JmZbQucQzqtrOzvBZEqLQDuBI5w9wdyJzNQxf48s4G1Sh56AbCaATuS/gOV7cfuHrWZQdvMbFfgI6Siv1mJQ88Bfk1qBq5x91dLHFskjJkNAY4FTgCGZk5HpEzzgBOBU+p2W9rMLiLmtMAJg4BRAQNDKoAdx8x2NrPbgFuBYyi3+AOsBnwM+CnwmJkdUXyxinSs4rGj24GTUPGX7jOUdG3fXlzrdXJN0LijBgHbBgw8D/h9wLgtM7ORZnYl6bCFXSoKuy5wNvCgmR1YUUyRVpwKjMudhEiwcaRrvU5uIE3Zl23bQcA7AwZ+yt1fDxh3wMxsnWJv5QeI3e2wL1sAV5jZ7WY2IVMOIr0ysz2BI3LnIVKRI4prvhaKPQGeCRj6nYOANQIG7ohtf81sDDCddLDC4MzpAOwETDazI3MnIgJgZqsAF5AWBIs0gQEXFNd+XcwKGHONrm0Aiin324ANc+fSwxDgTDM7S2sDpAPsDmySOwmRim1CuvbrolYNwNMBY/abmR0PXE7caUpl+Bxwg5lFHb8s0h9jcycgkkmdrv1aNQBZZgDMbIiZXUJa7VmHKc09galmtnnuRKSx6vQlKFKmOl37agD64Qzg4EyxWzUCuF4zAZJJnb4ERcpUp2s/rAFYKWDgyk//M7OjSNPqdTQC+IXWBIiISC8itjNeqSu2+TSzvYHv586jTXsCP8idhDTOtNwJiGTS+Gu/9g2AmW0JXEZnPObXriPNrK6zGFJPjf8SlMZq/LVf6wbAzFYkbZMYsY4hlzPMbHzuJKQxGv8lKI3V+Gu/1g0A8HnSLnvdZAhweu4kpDFuAWbmTkKkYjNJ136j1bYBMLPVgeNz5xFkFzPLtW2xNEhxWuVhgOfORaQiDhymk1pr3AAAxwHd/Ojct/VUgFTB3W8CfpQ7D5GK/Ki45huvlg2AmW0AfCF3HsG2Aj6VOwlpjONIJ2WKdLMppGtdqGkDAEwCVs6dRAUm1ezACqkpd58L7AZ8CeiIkzxFSvQG8BVgt+JaF2rYABQFsW67/bXqXcDE3ElIM7j7Anc/DRgN3Ai8mTklkXa9RVrst727f8fdF+ROqJPU8R7zvlT/6/9J4H5gI2Ak1e45MBH4WYXxpOHc/RHgfcVjtqNJW6aOAVbNmphI/7wC3Et6zG+Gu2tGaxnq2ABUsTp+PnAW8DvgbndfdLqhmQ0jfRmOJ02Xrh+cy/vNbAV3168xqZS7vwFMLV4i0mVqdQugWBX/geAwDwIT3P1od7928eIP6V6pu09x9+8BWwMXB+ezOrBHcAwREWmYWjUApEVKkY/+nQrs4O792iHK3V9090NI0/TPBealdQAiIlKqujUAHw4c+xJ3P7aY9hwQd78WOLT8lBZRAyAiIqWqWwMwKmjcWcDR7Qzg7tcBF5aTzlI2NrNuOu9AREQyq1sDELXg7nB3f6GEcY4BnihhnN5ELzYUEZEGUQMAd7r79WUM5O4vAaeVMVYv1ACIiEhpatMAmNlwIGJXvLs7fLyF1ACIiEhpatMAEFcAyz4T+l7SPgJlUwMgIiKlUQNQcgPg7q8BD5U5ZkENgIiIlKZODcDwoHH/XpMxo/7+IiLSQHVqAGYHjRvxaGHEmM8EjCkiIg1VpwbgyaBxx5Y5mJmtR8x0/VMBY4qISEPVqQF4GvCAcUttAALGW0gNgIiIlKY2DYC7zyNmv/1di2NPy7J3iWMtTg2AiIiUpjYNQGFWwJgbAf9ZxkBmNhY4soyxevH08t8iIiLSP3VrACJW1wN8ycx2bGeAYhbhJ8DgUjJaWkTzIyIiDVW3BuDmoHEHAz8xs5XbGONEYOuS8ulpurvPCRpbREQaqG4NwFWBY28F3DPQmQAzW9PMLgG+EpMWEPv3FhGRBqpVA+DujxKzy95CWwFTzOzk/iwMNLOJwIPAwYE5AVwdPL6IiDTMkNwJtOAq4D2B4w8GjgUOMrPJpMN9pgH3kxYMji1e44tXtL+4+wMVxBERkQapawPwtQribAQcVLxy0vS/VM7M3g3sBuwAbA+MBoZlTUqkf+YC9wH3ANOBW939L3lT6kx1bACmkZ4G2DB3IhW5MncC0hxmNgQ4DjgBWCFzOiKtGAbsXLwA3jSzE4GT3f2tfGl1nlqtAQBwdwdOyZ1HRSa7+225k5BmMLORwO3At1Dxl+6xAumavr24xqVQuwagcC7waO4kKvDl3AlIMxRfjNOBcblzEQkyDpiuJuBttWwA3P1NqlkHkNNl7j41dxLS/cxsMHAR0M4+GCJ1sDJwUXHNN14tGwAAd/8FcFfuPII0ocGRznEs+uUvzTGOdM03Xm0bgELk5js5neXuj+VOQrqfmW0CfDN3HiIV+2Zx7TdarRsAd78F+HHuPEr2GDApdxLSGO8FhuZOQqRiQ0nXfqPVugEoHAl0y0r5l4EPufuLuRORxhibOwGRTBp/7de+AXD3ecCBwMzMqbRrAXCQuz+cOxFplMZ/CUpjNf7aj2oALGjcXrn7s8BE4JUq45bsq+5+Xe4kpHG2y52ASCZ1uvZDauog4NWAcdcKGLNPxX75B5N+SdfNJe5+au4kpJGe+P/bu/9QPcs6juPv7xRLnEXFQVuDVm5qjBU5HdtEXbGRzdRNSrJfFEm/kAz/yPonRBDbP4LBoFgwKMtYtNzQXGxtbiabS8dqSB0tWTTW1lygTtev8emP6zpnj895zq/n3Nd9n+c8nxfcf4w9dvO/AAAHWklEQVRzP9/r+8DNvt/nuq/7uptOwKwhvXTtl6ipr80CSrxn/p0FYo5L0lZgLb01E7Ae+ELTSVjfeqbpBMwa0kvXfoma+uqMagBguAlYzvRfE/Bf4CuS7vD+1NagXvpP0KxKvXTtuwGYqHw7YAnwZJN5jOElYKWkHzSdiPW9mbqZltl4eunaL9YAvFIgcKMNAAwvDFwJbGg6lza/B66StKfpRMwk7Qe2NJ2HWc225Gu/V5Soqa/MAo4VCNx4AwDpEUFJXwKuAfY1nM5x4KvAlZION5yLWasvAyebTsKsJidJ13wvKVFTj80CBgsEHoiIOQXidkXSbyUtAz4OvFDz8K+TXkU5X9L3fb/fphtJx0kbapn1g6/la74n5Fo6UCD0YKkGIEjP5U8rkn4BLATuAI4UHu406fbDfEnfkdRLTyZYn5G0CbiTdN2azUSngW/ka72X3ESZfQAGA/ggcKBA8F9Lur5A3EpERACLgZvzsaiCsP8AHgW2AtslvV5BTLPaRMQCYCNwddO5mFVoH/B5SSV+8BYVEduAjxQIfUUAF5CeBKi6w/gPMCCpxCLDykXEe0id1nXAu4A5wMXAuR1OF+k+0tF8HCQV/acl9eJGRGbDImIW8EVgFenVqfMaTcisO4dJj/r9Btgg6Uyz6UxeRLwFOEH1L+wScGFIIiL+Ary34gEAbpP0swJxa5H/IxwgNQMXAS+TCv7f8zsIzGa8iHgHaaZwdtO5mE3AKeCgpJeaTmSqIuKTwMMFQr8o6ZKhX7e7KdMArAF6tgHIv+aP58OsL0k6CexoOg+zPrSmUNzdcPZlQDsLDXLTdHoawMzMrBfk2llqMf1OONsA7Co0yPnAvYVim5mZzVT3kmpoCbsAQhIAETEIXFpgoDPAByQ9VyC2mZnZjBIRC0m7xp5TIPzzki6DszMAANsLDATpC6wrFNvMzGymWUeZ4g8ttb61ASix0nDIDRFxXcH4ZmZmPS/XyhsKDjFc64dvAeSBSz0OCGmzoWV+fM7MzGykiDgP2AtcUWiIFyVdMvSPWW1/fKjQoJC+0PqC8c3MzHrZesoVf2ir8e0zAPMp/7KcOyV9r/AYZmZmPSMivg48WHiYBZL+PDxmawOQk9gNXFswgTPA9ZK8sYiZmfW9iFgJbKPcwj+APZLesBav/RYAwP0FE4D0BTfl2QYzM7O+lWvhJsoWf+hQ20c0AJK2Ac8WTuRtwONuAszMrF/lGvg4qSaW9Gyu7W/QaQYA4L7CyQDMB/bnqQ8zM7O+kWvfflItLK1jTR+xBgAgIgI4BCwsnBSkNQF3eWGgmZn1g7zg7wHKT/sDPAcsUodi33EGIJ94d+mssnOAByNiQ34G0szMbMaJiPMiYgNptX8dxR/g7k7FH0a/BYCkx4DNxVIa6XZgb0SsqHFMMzOz4nJt20uqdXXZnGt5Rx1vAQz/MWIu8EdgdoHExvIr4FuSDtU8rpmZWWUiYhHwXWB1zUOfAt4n6choJ4w6AwCQP3hPxUlNxGrgYERszE2ImZlZz4iIuRGxEThI/cUf4J6xij+MMwMAEBHnAk8BSypMbDL+RXpM4hHgUUn/bCgPMzOzUUXE24GPAWuAjwJvbiiV/cDVkv431knjNgAAETEH+B0wp5rcunYGeJLUDGyRdLjZdMzMrJ9FxDzgZlLRv4b6FveN5ihwlaSj4504oQYAICKuBPYA508tt0q9TPqy7ccJYGJfzMzMbGwBDJB+BLcfb20wr3angWslPTORkyfcAABExG3AT7tMzMzMzMr5lKSHJ3rymIsA2+XAdewSaGZmZhN332SKP0xyBgCGdwncTLrfYWZmZs16BLhltA1/RjPpBgAgImaTngx4/6Q/bGZmZlX5A2nF/6nJfrCrBgAgIt5NejJgoKsAZmZmNhUnSCv+/9rNhye1BqBVHvDGnICZmZnV5wRwY7fFH6bQAABIepq0QZC37DUzM6vHIWBJrsFdm1IDAJA341kObJ1qLDMzMxvTVmB5FRvhTbkBAMiLD9YC66qIZ2ZmZiOsA9Z2s+Cvk64XAY4aMOIzwA+BN1Ua2MzMrD/9G7hd0kNVBq28AQCIiKXAL4GLKw9uZmbWP46RfvXvqzpwJbcA2uVElwAHSsQ3MzPrAwdIi/0qL/5QqAEAkPQ3YCnwTaCS+xVmZmZ94BSpdi7NtbSIIrcARgwSMRd4APhE8cHMzMx618+BuyQdKT1QsRmAVpKOSLoVWIVvC5iZmbU7AKySdGsdxR9qagCGSNohaTGwmvQuATMzs372FLBa0mJJO+ocuJZbAKMOHrEC+DZpZiAaS8TMzKw+ArYD90t6oqkkGm0AhpNILxb6LPA5YEHD6ZiZmZXwAvAj4MdT2cO/KtOiAWgVEcuAT5NmBS5tOB0zM7OpeJ70a/8nkvY2nUyradcAtMpPD3wI+DCwApjXZD5mZmbjOAw8AewEdtW1oK8b07oBaBcRs4HLWo7LgYuAC9uOC5rK0czMZqTXgFfbjuPAn4DBoaOqffrr8H800V9AMVfyRAAAAABJRU5ErkJggg==;" vertex="1" parent="1">
          <mxGeometry x="560" y="30" width="128" height="128" as="geometry" />
        </mxCell>
        <mxCell id="Ixr0ffq90QcaKTADXFyB-21" value="&lt;font style=&quot;font-size: 32px;&quot;&gt;DNS server&lt;/font&gt;" style="text;strokeColor=none;align=center;fillColor=none;html=1;verticalAlign=middle;whiteSpace=wrap;rounded=0;fontSize=32;fontFamily=Helvetica;" vertex="1" parent="1">
          <mxGeometry x="500" y="170" width="252" height="30" as="geometry" />
        </mxCell>
        <mxCell id="Ixr0ffq90QcaKTADXFyB-22" value="" style="endArrow=classic;html=1;rounded=0;" edge="1" parent="1">
          <mxGeometry width="50" height="50" relative="1" as="geometry">
            <mxPoint x="200" y="210" as="sourcePoint" />
            <mxPoint x="200" y="470" as="targetPoint" />
          </mxGeometry>
        </mxCell>
        <mxCell id="Ixr0ffq90QcaKTADXFyB-23" value="HTTP REQUEST&lt;br&gt;IP : 8.8.8.8" style="edgeLabel;html=1;align=center;verticalAlign=top;resizable=0;points=[];rotation=1;fontSize=19;labelPosition=center;verticalLabelPosition=bottom;" vertex="1" connectable="0" parent="Ixr0ffq90QcaKTADXFyB-22">
          <mxGeometry x="0.008" y="-8" relative="1" as="geometry">
            <mxPoint x="21" y="9" as="offset" />
          </mxGeometry>
        </mxCell>
        <mxCell id="Ixr0ffq90QcaKTADXFyB-24" value="" style="endArrow=classic;html=1;rounded=0;entryX=0.891;entryY=1.052;entryDx=0;entryDy=0;entryPerimeter=0;" edge="1" parent="1">
          <mxGeometry width="50" height="50" relative="1" as="geometry">
            <mxPoint x="60" y="470" as="sourcePoint" />
            <mxPoint x="61.65000000000009" y="209.99999999999994" as="targetPoint" />
          </mxGeometry>
        </mxCell>
        <mxCell id="Ixr0ffq90QcaKTADXFyB-25" value="HTTP RESPOND" style="edgeLabel;html=1;align=center;verticalAlign=bottom;resizable=0;points=[];fontSize=19;rotation=0;labelPosition=center;verticalLabelPosition=top;" vertex="1" connectable="0" parent="Ixr0ffq90QcaKTADXFyB-24">
          <mxGeometry relative="1" as="geometry">
            <mxPoint x="20" y="-10" as="offset" />
          </mxGeometry>
        </mxCell>
        <mxCell id="Ixr0ffq90QcaKTADXFyB-41" value="" style="rounded=1;whiteSpace=wrap;html=1;strokeWidth=2;fillColor=none;" vertex="1" parent="1">
          <mxGeometry x="600" y="320" width="360" height="170" as="geometry" />
        </mxCell>
        <mxCell id="Ixr0ffq90QcaKTADXFyB-42" value="" style="rounded=1;whiteSpace=wrap;html=1;strokeWidth=2;fillColor=#f0a30a;fontColor=#000000;strokeColor=#BD7000;" vertex="1" parent="1">
          <mxGeometry x="616" y="341" width="94" height="59" as="geometry" />
        </mxCell>
        <mxCell id="Ixr0ffq90QcaKTADXFyB-43" value="" style="rounded=1;whiteSpace=wrap;html=1;strokeWidth=2;fillColor=#d80073;fontColor=#ffffff;strokeColor=#A50040;" vertex="1" parent="1">
          <mxGeometry x="850" y="341" width="94" height="128" as="geometry" />
        </mxCell>
        <mxCell id="Ixr0ffq90QcaKTADXFyB-44" value="" style="rounded=1;whiteSpace=wrap;html=1;strokeWidth=2;fillColor=#60a917;fontColor=#ffffff;strokeColor=#2D7600;" vertex="1" parent="1">
          <mxGeometry x="733" y="341" width="94" height="128" as="geometry" />
        </mxCell>
        <mxCell id="Ixr0ffq90QcaKTADXFyB-45" value="&lt;font style=&quot;font-size: 32px;&quot;&gt;Server 1&lt;/font&gt;" style="text;strokeColor=none;align=center;fillColor=none;html=1;verticalAlign=middle;whiteSpace=wrap;rounded=0;fontSize=32;fontFamily=Helvetica;" vertex="1" parent="1">
          <mxGeometry x="654" y="500" width="252" height="30" as="geometry" />
        </mxCell>
        <mxCell id="Ixr0ffq90QcaKTADXFyB-46" value="&lt;font style=&quot;font-size: 16px;&quot;&gt;Database&lt;br&gt;(MySQL)&lt;br&gt;&lt;/font&gt;" style="text;strokeColor=none;align=center;fillColor=none;html=1;verticalAlign=middle;whiteSpace=wrap;rounded=0;fontSize=16;fontFamily=Helvetica;fontColor=#FFFFFF;" vertex="1" parent="1">
          <mxGeometry x="857" y="355" width="80" height="100" as="geometry" />
        </mxCell>
        <mxCell id="Ixr0ffq90QcaKTADXFyB-47" value="&lt;font style=&quot;font-size: 16px;&quot;&gt;Application server&lt;/font&gt;" style="text;strokeColor=none;align=center;fillColor=none;html=1;verticalAlign=middle;whiteSpace=wrap;rounded=0;fontSize=16;fontFamily=Helvetica;fontColor=#FFFFFF;" vertex="1" parent="1">
          <mxGeometry x="740" y="355" width="80" height="100" as="geometry" />
        </mxCell>
        <mxCell id="Ixr0ffq90QcaKTADXFyB-48" value="" style="rounded=1;whiteSpace=wrap;html=1;strokeWidth=2;fillColor=#fa6800;fontColor=#000000;strokeColor=#C73500;" vertex="1" parent="1">
          <mxGeometry x="616" y="410" width="94" height="60" as="geometry" />
        </mxCell>
        <mxCell id="Ixr0ffq90QcaKTADXFyB-49" value="&lt;font style=&quot;font-size: 16px;&quot;&gt;Web server&lt;/font&gt;" style="text;strokeColor=none;align=center;fillColor=none;html=1;verticalAlign=middle;whiteSpace=wrap;rounded=0;fontSize=16;fontFamily=Helvetica;fontColor=#FFFFFF;" vertex="1" parent="1">
          <mxGeometry x="623" y="350" width="80" height="40" as="geometry" />
        </mxCell>
        <mxCell id="Ixr0ffq90QcaKTADXFyB-50" value="Code base" style="text;strokeColor=none;align=center;fillColor=none;html=1;verticalAlign=middle;whiteSpace=wrap;rounded=0;fontSize=16;fontFamily=Helvetica;fontColor=#FFFFFF;" vertex="1" parent="1">
          <mxGeometry x="623" y="420" width="80" height="40" as="geometry" />
        </mxCell>
        <mxCell id="Ixr0ffq90QcaKTADXFyB-51" value="" style="rounded=1;whiteSpace=wrap;html=1;strokeWidth=2;fillColor=none;" vertex="1" parent="1">
          <mxGeometry x="600" y="570" width="360" height="170" as="geometry" />
        </mxCell>
        <mxCell id="Ixr0ffq90QcaKTADXFyB-52" value="" style="rounded=1;whiteSpace=wrap;html=1;strokeWidth=2;fillColor=#f0a30a;fontColor=#000000;strokeColor=#BD7000;" vertex="1" parent="1">
          <mxGeometry x="616" y="591" width="94" height="59" as="geometry" />
        </mxCell>
        <mxCell id="Ixr0ffq90QcaKTADXFyB-53" value="" style="rounded=1;whiteSpace=wrap;html=1;strokeWidth=2;fillColor=#d80073;fontColor=#ffffff;strokeColor=#A50040;" vertex="1" parent="1">
          <mxGeometry x="850" y="591" width="94" height="128" as="geometry" />
        </mxCell>
        <mxCell id="Ixr0ffq90QcaKTADXFyB-54" value="" style="rounded=1;whiteSpace=wrap;html=1;strokeWidth=2;fillColor=#60a917;fontColor=#ffffff;strokeColor=#2D7600;" vertex="1" parent="1">
          <mxGeometry x="733" y="591" width="94" height="128" as="geometry" />
        </mxCell>
        <mxCell id="Ixr0ffq90QcaKTADXFyB-55" value="&lt;font style=&quot;font-size: 32px;&quot;&gt;Server 2&lt;/font&gt;" style="text;strokeColor=none;align=center;fillColor=none;html=1;verticalAlign=middle;whiteSpace=wrap;rounded=0;fontSize=32;fontFamily=Helvetica;" vertex="1" parent="1">
          <mxGeometry x="654" y="750" width="252" height="30" as="geometry" />
        </mxCell>
        <mxCell id="Ixr0ffq90QcaKTADXFyB-56" value="&lt;font style=&quot;font-size: 16px;&quot;&gt;Database&lt;br&gt;(MySQL)&lt;br&gt;&lt;/font&gt;" style="text;strokeColor=none;align=center;fillColor=none;html=1;verticalAlign=middle;whiteSpace=wrap;rounded=0;fontSize=16;fontFamily=Helvetica;fontColor=#FFFFFF;" vertex="1" parent="1">
          <mxGeometry x="857" y="605" width="80" height="100" as="geometry" />
        </mxCell>
        <mxCell id="Ixr0ffq90QcaKTADXFyB-57" value="&lt;font style=&quot;font-size: 16px;&quot;&gt;Application server&lt;/font&gt;" style="text;strokeColor=none;align=center;fillColor=none;html=1;verticalAlign=middle;whiteSpace=wrap;rounded=0;fontSize=16;fontFamily=Helvetica;fontColor=#FFFFFF;" vertex="1" parent="1">
          <mxGeometry x="740" y="605" width="80" height="100" as="geometry" />
        </mxCell>
        <mxCell id="Ixr0ffq90QcaKTADXFyB-58" value="" style="rounded=1;whiteSpace=wrap;html=1;strokeWidth=2;fillColor=#fa6800;fontColor=#000000;strokeColor=#C73500;" vertex="1" parent="1">
          <mxGeometry x="616" y="660" width="94" height="60" as="geometry" />
        </mxCell>
        <mxCell id="Ixr0ffq90QcaKTADXFyB-59" value="&lt;font style=&quot;font-size: 16px;&quot;&gt;Web server&lt;/font&gt;" style="text;strokeColor=none;align=center;fillColor=none;html=1;verticalAlign=middle;whiteSpace=wrap;rounded=0;fontSize=16;fontFamily=Helvetica;fontColor=#FFFFFF;" vertex="1" parent="1">
          <mxGeometry x="623" y="600" width="80" height="40" as="geometry" />
        </mxCell>
        <mxCell id="Ixr0ffq90QcaKTADXFyB-60" value="Code base" style="text;strokeColor=none;align=center;fillColor=none;html=1;verticalAlign=middle;whiteSpace=wrap;rounded=0;fontSize=16;fontFamily=Helvetica;fontColor=#FFFFFF;" vertex="1" parent="1">
          <mxGeometry x="623" y="670" width="80" height="40" as="geometry" />
        </mxCell>
        <mxCell id="Ixr0ffq90QcaKTADXFyB-70" value="" style="endArrow=classic;html=1;rounded=0;" edge="1" parent="1">
          <mxGeometry width="50" height="50" relative="1" as="geometry">
            <mxPoint x="320" y="610" as="sourcePoint" />
            <mxPoint x="580" y="680" as="targetPoint" />
          </mxGeometry>
        </mxCell>
        <mxCell id="Ixr0ffq90QcaKTADXFyB-71" value="" style="endArrow=classic;html=1;rounded=0;" edge="1" parent="1">
          <mxGeometry width="50" height="50" relative="1" as="geometry">
            <mxPoint x="570" y="700" as="sourcePoint" />
            <mxPoint x="320" y="630" as="targetPoint" />
          </mxGeometry>
        </mxCell>
        <mxCell id="Ixr0ffq90QcaKTADXFyB-72" value="" style="endArrow=classic;html=1;rounded=0;" edge="1" parent="1">
          <mxGeometry width="50" height="50" relative="1" as="geometry">
            <mxPoint x="570" y="420" as="sourcePoint" />
            <mxPoint x="320" y="497.5" as="targetPoint" />
          </mxGeometry>
        </mxCell>
        <mxCell id="Ixr0ffq90QcaKTADXFyB-76" value="" style="endArrow=classic;html=1;rounded=0;" edge="1" parent="1">
          <mxGeometry relative="1" as="geometry">
            <mxPoint x="330" y="520" as="sourcePoint" />
            <mxPoint x="580" y="441.25" as="targetPoint" />
          </mxGeometry>
        </mxCell>
        <mxCell id="Ixr0ffq90QcaKTADXFyB-82" value="IP : 8.8.8.8" style="text;html=1;align=center;verticalAlign=middle;resizable=0;points=[];autosize=1;strokeColor=none;fillColor=none;rotation=-15;" vertex="1" parent="1">
          <mxGeometry x="420" y="488" width="80" height="30" as="geometry" />
        </mxCell>
        <mxCell id="Ixr0ffq90QcaKTADXFyB-85" value="IP : 8.8.8.8" style="text;html=1;align=center;verticalAlign=middle;resizable=0;points=[];autosize=1;strokeColor=none;fillColor=none;rotation=15;" vertex="1" parent="1">
          <mxGeometry x="390" y="670" width="80" height="30" as="geometry" />
        </mxCell>
      </root>
    </mxGraphModel>
  </diagram>
</mxfile>
